<svg width="10" height="9" viewBox="0 0 10 9" fill="none" xmlns="http://www.w3.org/2000/svg">
<path d="M9.60992 3.47009L5.71767 0.217458C5.39945 -0.0555788 4.83826 -0.0889147 4.56452 0.217458C4.24116 0.576216 4.36436 1.01117 4.68771 1.28421L7.99999 4.0622L4.74246 6.80051C4.41226 7.06719 4.26854 7.60692 4.56452 7.90377C4.88274 8.22284 5.39945 8.17363 5.71767 7.90377L9.60992 4.64796C10.13 4.20189 10.13 3.86695 9.60992 3.47009Z" fill="#E21F26"/>
<path d="M4.64654 3.47009L1.19563 0.217458C0.912864 -0.0555788 0.408158 -0.0889147 0.167962 0.217458C-0.11784 0.576216 -0.00991583 1.01117 0.274366 1.28421L3.21449 4.0622L0.319971 6.80051C0.0402497 7.06719 -0.0919958 7.60692 0.167962 7.90377C0.447684 8.22284 0.912864 8.17363 1.19563 7.90377L4.64654 4.64796C5.11325 4.20189 5.12237 3.86695 4.64654 3.47009Z" fill="#E21F26"/>
</svg>
