<svg width="141" height="50" viewBox="0 0 141 50" fill="none" xmlns="http://www.w3.org/2000/svg">
<path d="M87.7214 6.56657V15.3123C87.7214 15.6002 87.9504 15.8346 88.2313 15.8346C88.5122 15.8346 88.7412 15.6002 88.7412 15.3123V6.56657C88.7412 6.27859 88.5122 6.04785 88.2313 6.04785C87.9504 6.04696 87.7214 6.2777 87.7214 6.56657Z" fill="white"/>
<path d="M94.2442 6.04688C93.9624 6.04688 93.7334 6.27761 93.7334 6.56559V15.3113C93.7334 15.5993 93.9624 15.8336 94.2442 15.8336C94.5277 15.8336 94.7558 15.5993 94.7558 15.3113V7.08877H100.258C101.906 7.08877 102.641 8.02335 102.641 8.95078C102.641 9.86747 101.897 10.8477 100.258 10.8477H96.2273C95.9482 10.8477 95.7174 11.082 95.7174 11.37C95.7174 11.6561 95.9482 11.8887 96.2273 11.8887H100.258C102.496 11.8887 103.662 10.4112 103.662 8.95078C103.662 7.50822 102.496 6.04777 100.258 6.04777H94.2442V6.04688Z" fill="white"/>
<path d="M107.235 5.8307C107.023 5.89867 106.88 6.09811 106.88 6.32527V15.3715C106.88 15.6612 107.11 15.892 107.392 15.892C107.671 15.892 107.903 15.6612 107.903 15.3715V7.92881C109.165 9.70317 112.293 14.1104 112.293 14.1104C112.387 14.2464 112.545 14.3233 112.707 14.3233C112.87 14.3233 113.022 14.2464 113.121 14.1104C113.121 14.1104 116.188 9.81496 117.442 8.06117V15.3035C117.442 15.5897 117.673 15.824 117.955 15.824C118.234 15.824 118.462 15.5897 118.462 15.3035V6.4612C118.462 6.23762 118.322 6.03997 118.111 5.972C117.903 5.89867 117.672 5.97379 117.541 6.15713C117.541 6.15713 113.409 11.9354 112.708 12.9174C112.004 11.9336 107.804 6.01761 107.804 6.01761C107.675 5.83964 107.444 5.75915 107.235 5.8307Z" fill="white"/>
<path d="M133.184 14.8345L127.844 6.08164C127.751 5.92781 127.582 5.83838 127.41 5.83838C127.232 5.83838 127.067 5.93139 126.978 6.08343L121.639 14.8971C121.493 15.1448 121.569 15.465 121.808 15.617C122.049 15.7673 122.362 15.6904 122.51 15.4462C122.51 15.4462 126.682 8.55358 127.411 7.34444C127.799 7.98031 129.149 10.192 130.332 12.1354H126.19C125.91 12.1354 125.677 12.3679 125.677 12.6541C125.677 12.9421 125.91 13.1728 126.19 13.1728H130.972C131.738 14.4302 132.319 15.3863 132.319 15.3863C132.465 15.6304 132.782 15.7056 133.019 15.5553C133.262 15.4015 133.338 15.0804 133.184 14.8345Z" fill="white"/>
<path d="M138.004 6.16399L135.969 4.3315C135.803 4.17767 135.509 4.15889 135.366 4.3315C135.197 4.53362 135.262 4.77866 135.431 4.93249L137.162 6.49757L135.459 8.0403C135.287 8.19055 135.211 8.49462 135.366 8.66186C135.533 8.84162 135.803 8.8139 135.969 8.66186L138.004 6.82758C138.276 6.57628 138.276 6.38757 138.004 6.16399Z" fill="#E21F26"/>
<path d="M135.435 6.16399L133.405 4.3315C133.238 4.17767 132.941 4.15889 132.8 4.3315C132.632 4.53362 132.695 4.77866 132.863 4.93249L134.593 6.49757L132.889 8.0403C132.725 8.19055 132.647 8.49462 132.8 8.66186C132.965 8.84162 133.238 8.8139 133.405 8.66186L135.435 6.82758C135.71 6.57628 135.715 6.38757 135.435 6.16399Z" fill="#E21F26"/>
<path d="M136.927 13.1221C137.14 13.1221 137.35 13.1793 137.554 13.2911C137.759 13.4029 137.919 13.5639 138.033 13.7731C138.146 13.9806 138.204 14.1997 138.204 14.4251C138.204 14.6505 138.146 14.8651 138.035 15.0735C137.923 15.2819 137.765 15.4402 137.563 15.5556C137.36 15.6709 137.147 15.7282 136.927 15.7282C136.705 15.7282 136.494 15.6709 136.289 15.5556C136.086 15.4402 135.93 15.281 135.818 15.0735C135.704 14.866 135.646 14.6505 135.646 14.4251C135.646 14.1997 135.704 13.9815 135.819 13.7731C135.932 13.5639 136.093 13.4029 136.297 13.2911C136.503 13.1793 136.712 13.1221 136.927 13.1221ZM136.927 13.3385C136.747 13.3385 136.571 13.3859 136.401 13.4798C136.232 13.5728 136.099 13.707 136.003 13.8796C135.907 14.054 135.86 14.2355 135.86 14.4242C135.86 14.6129 135.907 14.7927 136.001 14.9662C136.096 15.137 136.227 15.2721 136.396 15.366C136.565 15.4634 136.742 15.5108 136.927 15.5108C137.111 15.5108 137.287 15.4634 137.457 15.366C137.626 15.2712 137.757 15.137 137.851 14.9662C137.944 14.7936 137.991 14.6129 137.991 14.4242C137.991 14.2355 137.943 14.054 137.849 13.8796C137.754 13.707 137.62 13.5719 137.45 13.4798C137.279 13.3859 137.106 13.3385 136.927 13.3385ZM136.365 15.1442V13.7418H136.839C137.001 13.7418 137.118 13.7562 137.192 13.7821C137.263 13.8062 137.322 13.8518 137.363 13.9162C137.407 13.9806 137.427 14.0486 137.427 14.121C137.427 14.2239 137.391 14.3133 137.321 14.3884C137.247 14.4654 137.153 14.5074 137.035 14.5163C137.082 14.5369 137.122 14.5619 137.15 14.5915C137.205 14.6469 137.274 14.7399 137.353 14.8705L137.521 15.1451H137.25L137.129 14.9233C137.032 14.7507 136.955 14.6415 136.897 14.5968C136.857 14.5655 136.796 14.5476 136.719 14.5494H136.589V15.1451H136.365V15.1442ZM136.589 14.3554H136.858C136.988 14.3554 137.075 14.3357 137.122 14.2972C137.17 14.257 137.192 14.2051 137.192 14.1398C137.192 14.0978 137.181 14.0611 137.159 14.028C137.136 13.9967 137.104 13.9726 137.064 13.9547C137.024 13.9395 136.95 13.9305 136.84 13.9305H136.589V14.3554Z" fill="white"/>
<path d="M90.0204 32.8763C88.8808 32.8763 87.9389 32.5615 87.5202 32.3183C87.3342 32.2136 87.624 31.1556 87.8226 31.2487C88.3226 31.4812 88.9962 31.737 89.7878 31.737C90.7404 31.737 91.3684 31.2487 91.3684 30.3999C91.3684 29.5047 90.5427 28.994 89.5543 28.935C89.3459 28.9234 89.2296 28.935 89.2296 28.7141V28.2025C89.2296 27.9825 89.3924 27.97 89.6017 27.9584C90.6707 27.8895 91.3451 27.378 91.3451 26.4121C91.3451 25.6805 90.7521 25.1564 89.659 25.1564C89.0436 25.1564 88.4496 25.389 88.0426 25.6922C87.8566 25.82 87.5766 24.8085 87.7403 24.6681C88.0891 24.3891 88.6124 24.0752 89.8907 24.0752C91.6126 24.0752 92.6591 24.8774 92.6591 26.2153C92.6591 27.4236 91.9024 28.2383 91.0195 28.4476C91.9722 28.7374 92.6591 29.4242 92.6591 30.5529C92.66 32.0974 91.4158 32.8763 90.0204 32.8763Z" fill="white"/>
<path d="M99.3572 32.7145H94.2872C94.1825 32.7145 94.0537 32.6563 94.0537 32.4354V31.8774C94.0537 30.0172 95.3337 28.8313 96.3213 28.2499C97.2641 27.691 98.2051 27.0641 98.2051 26.3772C98.2051 25.5866 97.6586 25.1797 96.6585 25.1797C95.7059 25.1797 95.1235 25.5866 94.7863 25.7843C94.5886 25.9005 94.2281 24.7844 94.4374 24.6681C94.8096 24.4598 95.4491 24.0752 96.9027 24.0752C98.5307 24.0752 99.554 24.762 99.554 26.1912C99.554 27.6105 98.2292 28.4467 97.0655 29.1327C96.3096 29.5861 95.6119 30.2148 95.5654 31.296C95.5654 31.5044 95.6584 31.5509 95.9026 31.5509H99.1944C99.4619 31.5509 99.554 31.5858 99.554 31.7602V32.5159C99.5549 32.6671 99.4735 32.7145 99.3572 32.7145Z" fill="white"/>
<path d="M103.567 28.8431H103.126C103.01 28.8431 102.95 28.7689 102.95 28.599V26.4427C102.95 26.0832 102.78 25.7702 102.312 25.7702C101.79 25.7702 101.559 26.212 101.559 26.5438V28.5856C101.559 28.7618 101.552 28.8422 101.423 28.8422H100.996C100.847 28.8422 100.806 28.768 100.806 28.5918V25.4053C100.806 25.2694 100.833 25.1943 100.969 25.1943H101.403C101.518 25.1943 101.566 25.3096 101.566 25.6218C101.796 25.3034 102.129 25.1138 102.644 25.1138C103.221 25.1138 103.716 25.4116 103.716 26.28V28.5319C103.716 28.7555 103.688 28.8431 103.567 28.8431Z" fill="white"/>
<path d="M107.418 28.8423H106.989C106.888 28.8423 106.826 28.8352 106.826 28.6464V28.456C106.576 28.7681 106.222 28.9174 105.7 28.9174C105.035 28.9174 104.513 28.388 104.513 27.0384C104.513 25.8445 104.934 25.0986 105.714 25.0986C106.237 25.0986 106.569 25.2471 106.826 25.6281V24.0272C106.826 23.885 106.86 23.8027 106.949 23.8027H107.383C107.572 23.8027 107.579 23.8635 107.579 24.0075V28.5785C107.58 28.7547 107.567 28.8423 107.418 28.8423ZM106.773 26.4419C106.773 26.0958 106.563 25.6138 106.027 25.6138C105.566 25.6138 105.315 26.0681 105.315 26.7397V27.3103C105.315 27.9739 105.566 28.3951 106.047 28.3951C106.509 28.3951 106.773 27.9668 106.773 27.7843V26.4419Z" fill="white"/>
<path d="M118.863 32.4704C118.805 32.6565 118.758 32.7146 118.525 32.7146H117.503C117.259 32.7146 117.201 32.6323 117.142 32.4356L116.142 29.1685L115.142 32.4588C115.085 32.6573 115.038 32.7155 114.805 32.7155H113.853C113.608 32.7155 113.549 32.6225 113.492 32.4364L111.097 24.5887C110.979 24.2166 111.143 24.205 111.329 24.205H112.236C112.445 24.205 112.457 24.264 112.538 24.5073L114.493 31.0529L115.574 27.4246L114.714 24.5878C114.598 24.2157 114.749 24.2041 114.935 24.2041H115.853C116.062 24.2041 116.062 24.2631 116.143 24.5064L118.098 31.0636L120.063 24.5064C120.132 24.2631 120.144 24.2041 120.307 24.2041H121.04C121.248 24.2041 121.365 24.2506 121.307 24.4474L118.863 32.4704Z" fill="white"/>
<path d="M124.468 32.8419C122.665 32.8419 121.619 32.0978 121.619 29.6205C121.619 27.1906 122.77 26.2954 124.526 26.2954C126.247 26.2954 127.235 27.2255 127.235 29.6089C127.235 31.7034 126.2 32.8419 124.468 32.8419ZM125.91 28.9704C125.91 27.9481 125.537 27.1915 124.479 27.1915C123.63 27.1915 123.002 27.7612 123.002 29.0294V30.1679C123.002 31.4351 123.665 31.9467 124.491 31.9467C125.375 31.9467 125.91 31.1794 125.91 30.0275V28.9704Z" fill="white"/>
<path d="M131.888 27.2383C131.864 27.3536 131.818 27.4118 131.713 27.4118C131.399 27.4118 131.039 27.4932 130.771 27.6559C130.236 27.9707 129.887 28.4 129.887 28.7721V32.2725C129.887 32.5748 129.876 32.7143 129.655 32.7143H128.922C128.666 32.7143 128.598 32.5855 128.598 32.2841V26.8197C128.598 26.5872 128.644 26.4602 128.876 26.4602H129.62C129.771 26.4602 129.899 26.5291 129.899 26.7625V27.3545C130.364 26.6927 131.027 26.3779 131.736 26.3779C131.83 26.3779 131.934 26.3779 131.922 26.5058L131.888 27.2383Z" fill="white"/>
<path d="M133.957 32.7154H133.189C132.945 32.7154 132.899 32.6572 132.899 32.3308V24.39C132.899 24.1807 132.946 24.0752 133.177 24.0752H133.91C134.189 24.0752 134.189 24.1682 134.189 24.4249V32.3084C134.189 32.6107 134.178 32.7154 133.957 32.7154Z" fill="white"/>
<path d="M140.528 32.7145H139.795C139.621 32.7145 139.516 32.7019 139.516 32.3773V32.0509C139.087 32.5866 138.482 32.8424 137.587 32.8424C136.447 32.8424 135.552 31.9355 135.552 29.621C135.552 27.5756 136.272 26.2958 137.61 26.2958C138.505 26.2958 139.076 26.5516 139.517 27.2036V24.4598C139.517 24.2147 139.575 24.0752 139.726 24.0752H140.47C140.796 24.0752 140.808 24.1798 140.808 24.4249V32.261C140.806 32.5624 140.783 32.7145 140.528 32.7145ZM139.423 28.5978C139.423 28.0049 139.062 27.1794 138.144 27.1794C137.352 27.1794 136.923 27.9575 136.923 29.1085V30.086C136.923 31.2254 137.352 31.9462 138.179 31.9462C138.969 31.9462 139.423 31.2138 139.423 30.8999V28.5978Z" fill="white"/>
<path d="M92.6251 37.5956C92.346 37.4569 91.8683 37.1296 91.0203 37.1296C88.9961 37.1296 88.5667 38.0955 88.5667 39.4093V43.0376C88.5667 44.5132 89.9622 44.8504 90.8924 44.8504C91.939 44.8504 92.4748 44.5016 92.753 44.3854C92.8925 44.3272 92.9623 44.9085 92.8577 44.9667C92.4623 45.1867 91.6948 45.3843 90.8575 45.3843C89.1482 45.3843 87.9155 44.6179 87.9155 43.0134V39.3744C87.9155 37.8397 88.4862 36.5957 90.9971 36.5957C92.2413 36.5957 92.7306 36.9803 92.9167 37.1073C93.0205 37.177 92.6949 37.6304 92.6251 37.5956Z" fill="white"/>
<path d="M96.8928 45.3403C95.416 45.3403 94.2648 44.6768 94.2648 42.1306C94.2648 39.7597 95.5332 38.8403 96.9635 38.8403C98.6729 38.8403 99.5218 39.7928 99.5218 42.1064C99.5209 44.1893 98.3464 45.3403 96.8928 45.3403ZM98.8697 41.6423C98.8697 40.2704 98.3115 39.3519 96.951 39.3519C95.8811 39.3519 94.9267 39.9672 94.9267 41.7344V42.5956C94.9267 44.3512 95.9044 44.8395 96.9384 44.8395C98.0673 44.8395 98.8688 43.9667 98.8688 42.3864V41.6423H98.8697Z" fill="white"/>
<path d="M105.323 45.2362H105.009C104.869 45.2362 104.857 45.1432 104.857 44.8516V40.8066C104.857 40.0043 104.462 39.3533 103.427 39.3533C102.263 39.3533 101.718 40.3522 101.718 41.0847V44.899C101.718 45.2013 101.705 45.2362 101.589 45.2362H101.287C101.124 45.2362 101.089 45.1664 101.089 44.8642V39.2942C101.089 39.0608 101.089 38.9803 101.321 38.9803H101.589C101.753 38.9803 101.728 39.2826 101.728 39.8174C102.112 39.1896 102.716 38.8408 103.648 38.8408C104.717 38.8408 105.485 39.3524 105.485 40.8406V44.7586C105.486 45.1772 105.475 45.2362 105.323 45.2362Z" fill="white"/>
<path d="M109.544 47.7223C108.695 47.7223 108.219 47.606 107.974 47.5479C107.753 47.4907 107.648 47.4674 107.648 47.3046V46.9907C107.648 46.828 107.812 46.921 108.033 46.9782C108.452 47.0954 108.882 47.234 109.509 47.234C110.59 47.234 110.997 46.5713 111.056 44.8041V44.4553C110.59 45.0357 109.962 45.3389 109.16 45.3389C107.95 45.3389 107.054 44.4428 107.054 42.1291C107.054 40.327 107.695 38.8389 109.124 38.8389C109.938 38.8389 110.521 39.0133 111.044 39.6876C111.044 39.1519 111.021 38.9784 111.183 38.9784H111.451C111.683 38.9784 111.683 39.0589 111.683 39.2923V44.28C111.684 46.5015 111.218 47.7223 109.544 47.7223ZM111.056 41.0836C111.056 40.3512 110.51 39.3397 109.347 39.3397C108.37 39.3397 107.719 40.2698 107.719 41.8519V42.4788C107.719 44.0251 108.347 44.8398 109.382 44.8398C110.37 44.8398 111.056 43.9446 111.056 43.5949V41.0836Z" fill="white"/>
<path d="M115.94 39.5041C115.625 39.5041 115.253 39.5864 114.975 39.7831C114.429 40.1552 114.08 40.6318 114.08 41.0155V44.8996C114.08 45.2019 114.067 45.2368 113.951 45.2368H113.649C113.486 45.2368 113.451 45.167 113.451 44.8647V39.2948C113.451 39.0614 113.451 38.9809 113.684 38.9809H113.951C114.032 38.9809 114.09 39.0614 114.09 39.2707V40.0496C114.556 39.2707 115.335 38.9219 115.986 38.9219C116.067 38.9219 116.137 38.9219 116.125 39.0149L116.067 39.3628C116.044 39.4808 116.01 39.5041 115.94 39.5041Z" fill="white"/>
<path d="M121.358 42.3046H117.626C117.626 44.1532 118.486 44.8159 119.649 44.8159C120.602 44.8159 120.998 44.5959 121.219 44.4912C121.428 44.3866 121.534 44.4215 121.534 44.5261V44.84C121.534 44.9912 121.464 44.9912 121.149 45.1074C120.998 45.1656 120.417 45.3408 119.73 45.3408C118.207 45.3408 117.021 44.7595 117.021 42.166C117.021 39.9337 117.94 38.8408 119.405 38.8408C120.73 38.8408 121.707 39.55 121.707 41.3754V41.8753C121.707 42.1534 121.649 42.3046 121.358 42.3046ZM119.416 39.3282C118.277 39.3282 117.637 40.2932 117.613 41.6419C117.613 41.8046 117.601 41.8395 117.764 41.8395H120.997C121.113 41.8395 121.126 41.8172 121.126 41.6535C121.091 40.0267 120.579 39.3282 119.416 39.3282Z" fill="white"/>
<path d="M124.742 45.3404C123.638 45.3404 123.265 45.0963 123.033 44.9684C122.928 44.9103 123.045 44.3871 123.219 44.4685C123.44 44.5722 123.835 44.8056 124.707 44.8056C125.591 44.8056 126.091 44.5033 126.091 43.736C126.091 43.0966 125.65 42.5975 124.638 42.0502C123.685 41.5386 123.091 41.0619 123.091 40.3411C123.091 39.3636 123.94 38.8413 124.928 38.8413C125.591 38.8413 126.254 38.9683 126.405 39.039C126.475 39.0738 126.276 39.5854 126.149 39.5389C125.952 39.4691 125.462 39.3412 124.986 39.3412C124.161 39.3412 123.696 39.6909 123.696 40.3527C123.696 40.8419 124.324 41.2363 125.068 41.6433C126.312 42.3301 126.707 42.864 126.707 43.7834C126.708 45.014 125.743 45.3404 124.742 45.3404Z" fill="white"/>
<path d="M129.719 45.3404C128.615 45.3404 128.242 45.0963 128.01 44.9684C127.905 44.9103 128.022 44.3871 128.196 44.4685C128.417 44.5722 128.812 44.8056 129.684 44.8056C130.568 44.8056 131.068 44.5033 131.068 43.736C131.068 43.0966 130.626 42.5975 129.615 42.0502C128.662 41.5386 128.068 41.0619 128.068 40.3411C128.068 39.3636 128.917 38.8413 129.905 38.8413C130.568 38.8413 131.231 38.9683 131.382 39.039C131.452 39.0738 131.253 39.5854 131.126 39.5389C130.929 39.4691 130.44 39.3412 129.964 39.3412C129.137 39.3412 128.673 39.6909 128.673 40.3527C128.673 40.8419 129.301 41.2363 130.045 41.6433C131.289 42.3301 131.685 42.864 131.685 43.7834C131.685 45.014 130.719 45.3404 129.719 45.3404Z" fill="white"/>
<path d="M2.32772 32.2002C1.07273 32.2002 0.32135 31.9543 0.0422653 31.7602C-0.0758091 31.6744 0.0744674 30.6772 0.235478 30.7201C0.536031 30.8274 1.07273 31.1172 2.15508 31.1172C3.14261 31.1172 3.9262 30.8382 3.9262 30.0118C3.9262 29.3249 3.55051 28.9609 2.41359 28.5102C1.27668 28.0487 0.246212 27.5023 0.246212 26.108C0.246212 24.9928 1.13624 24.0806 3.00307 24.0806C4.31262 24.0806 4.66595 24.2415 4.88153 24.3167C5.10605 24.3918 4.84932 25.3899 4.62391 25.3255C4.31262 25.2289 3.67931 25.0894 3.1113 25.0894C1.95292 25.0894 1.57723 25.4856 1.57723 26.108C1.57723 26.7519 2.0388 27.0623 3.06837 27.4603C4.50583 28.0389 5.30015 28.7892 5.30015 29.959C5.29926 31.7066 3.77592 32.2002 2.32772 32.2002Z" fill="white"/>
<path d="M9.30396 27.2549H8.31643V30.7312C8.31643 31.0844 8.48817 31.2991 8.77799 31.2991C8.99267 31.2991 9.10001 31.2883 9.3147 31.2347C9.43277 31.2141 9.51954 31.9967 9.42204 32.0396C9.25119 32.104 8.8102 32.1675 8.41393 32.1675C7.38436 32.1675 7.07307 31.4708 7.07307 30.7625V27.2442H6.53547C6.39683 27.2442 6.36462 27.1583 6.36462 27.0188V26.6128C6.36462 26.4411 6.39683 26.3981 6.60077 26.3981H7.11601V25.3249C7.11601 25.1309 7.24482 25.0781 7.41656 25.0557L7.9953 24.9493C8.22072 24.9055 8.28423 25.0021 8.28423 25.2176V26.3972H9.3138C9.51864 26.3972 9.56068 26.4929 9.56068 26.6333V27.0403C9.56158 27.1798 9.52938 27.2549 9.30396 27.2549Z" fill="white"/>
<path d="M11.7201 32.0507H10.8935C10.6252 32.0507 10.55 31.8897 10.55 31.7073V31.1286C10.55 30.9891 10.6252 30.8389 10.7647 30.8389H11.644C11.9553 30.8389 11.9759 30.9247 11.9759 31.0848V31.6643C11.9768 31.8459 11.9884 32.0507 11.7201 32.0507Z" fill="white"/>
<path d="M18.5665 29.2397H17.3437C17.1934 29.2397 17.1729 29.2719 17.1729 29.4543V31.7072C17.1729 31.9862 17.1085 32.0506 16.9153 32.0506H16.078C15.8419 32.0506 15.8642 31.9209 15.8642 31.675V24.4783C15.8642 24.2734 15.8955 24.1992 16.1209 24.1992H18.4162C20.3904 24.1992 21.3565 25.0363 21.3565 26.6882C21.3565 28.3382 20.4333 29.2397 18.5665 29.2397ZM18.3635 25.1749H17.3661C17.2051 25.1857 17.1729 25.2814 17.1729 25.3681V28.0171C17.1729 28.1996 17.2158 28.2219 17.3867 28.2219H18.6846C19.4574 28.2219 20.0371 27.7605 20.0371 26.6345C20.0371 25.5926 19.275 25.1749 18.3635 25.1749Z" fill="white"/>
<path d="M26.6278 29.5194H23.4415C23.4415 30.7634 24.0534 31.2678 25.0624 31.2678C25.9417 31.2678 26.4569 31.0961 26.6492 31.0317C26.8433 30.9566 26.9498 31.0094 26.9498 31.1283V31.6649C26.9498 31.8581 26.8746 31.901 26.5956 31.986C26.4453 32.0405 25.6411 32.1684 25.0078 32.1684C23.1633 32.1684 22.2188 31.343 22.2188 29.2189C22.2188 27.1593 23.0775 26.1299 24.7082 26.1299C26.1993 26.1299 27.0679 26.9554 27.0679 28.3925V29.0579C27.067 29.3692 27.024 29.5194 26.6278 29.5194ZM24.6858 26.9017C23.828 26.9017 23.4845 27.6306 23.4737 28.4882C23.4737 28.6385 23.463 28.7029 23.6133 28.7029H25.7807C25.888 28.7029 25.8987 28.6501 25.8987 28.499C25.8764 27.4705 25.5651 26.9017 24.6858 26.9017Z" fill="white"/>
<path d="M30.9867 27.2549H29.9992V30.7312C29.9992 31.0844 30.1709 31.2991 30.4607 31.2991C30.6754 31.2991 30.7828 31.2883 30.9974 31.2347C31.1155 31.2141 31.2014 31.9967 31.1048 32.0396C30.9339 32.104 30.4929 32.1675 30.0967 32.1675C29.0671 32.1675 28.7558 31.4708 28.7558 30.7625V27.2442H28.2182C28.0796 27.2442 28.0474 27.1583 28.0474 27.0188V26.6128C28.0474 26.4411 28.0796 26.3981 28.2835 26.3981H28.7987V25.3249C28.7987 25.1309 28.9267 25.0781 29.0993 25.0557L29.678 24.9493C29.9035 24.9055 29.967 25.0021 29.967 25.2176V26.3972H30.9965C31.2005 26.3972 31.2434 26.4929 31.2434 26.6333V27.0403C31.2443 27.1798 31.2121 27.2549 30.9867 27.2549Z" fill="white"/>
<path d="M36.5784 29.5194H33.3912C33.3912 30.7634 34.0031 31.2678 35.0121 31.2678C35.8914 31.2678 36.4066 31.0961 36.5998 31.0317C36.793 30.9566 36.8995 31.0094 36.8995 31.1283V31.6649C36.8995 31.8581 36.8243 31.901 36.5453 31.986C36.395 32.0405 35.5908 32.1684 34.9575 32.1684C33.1131 32.1684 32.1685 31.343 32.1685 29.2189C32.1685 27.1593 33.0272 26.1299 34.6579 26.1299C36.149 26.1299 37.0176 26.9554 37.0176 28.3925V29.0579C37.0176 29.3692 36.9746 29.5194 36.5784 29.5194ZM34.6364 26.9017C33.7786 26.9017 33.4351 27.6306 33.4243 28.4882C33.4243 28.6385 33.4136 28.7029 33.5639 28.7029H35.7313C35.8386 28.7029 35.8493 28.6501 35.8493 28.499C35.827 27.4705 35.5157 26.9017 34.6364 26.9017Z" fill="white"/>
<path d="M41.3235 26.9987C41.303 27.1051 41.2591 27.1597 41.1625 27.1597C40.8727 27.1597 40.5408 27.2348 40.2931 27.385C39.7993 27.6739 39.4782 28.0719 39.4782 28.4135V31.643C39.4782 31.9211 39.4666 32.0499 39.2635 32.0499H38.5873C38.3511 32.0499 38.2876 31.9318 38.2876 31.6537V26.6132C38.2876 26.3986 38.3305 26.2796 38.5443 26.2796H39.2313C39.3708 26.2796 39.4889 26.344 39.4889 26.5587V27.1051C39.9174 26.4934 40.5292 26.2036 41.1849 26.2036C41.2708 26.2036 41.3665 26.2036 41.3557 26.3226L41.3235 26.9987Z" fill="white"/>
<path d="M43.9427 32.1678C42.8908 32.1678 42.312 31.9425 42.0973 31.8244C41.9909 31.7699 42.0338 30.9346 42.2476 31.0088C42.4623 31.0839 42.838 31.278 43.6752 31.278C44.3721 31.278 44.7692 31.0732 44.7692 30.5267C44.7692 30.0867 44.4052 29.7442 43.686 29.3686C42.8711 28.9491 42.1403 28.5216 42.1403 27.6515C42.1403 26.6122 43.1493 26.1177 44.2325 26.1177C45.0268 26.1177 45.5421 26.2366 45.6807 26.3001C45.7988 26.3538 45.6056 27.1265 45.424 27.0943C45.2415 27.0397 44.7263 26.9235 44.3077 26.9235C43.686 26.9235 43.3425 27.1596 43.3425 27.6202C43.3425 27.952 43.804 28.2319 44.3622 28.5315C45.3703 29.0681 46.0036 29.5716 46.0036 30.5688C46.0027 31.8897 44.9079 32.1678 43.9427 32.1678Z" fill="white"/>
<path d="M50.2104 32.1671C49.3839 32.1671 48.815 31.9534 48.4295 31.4383V31.7495C48.4295 32.0285 48.3338 32.05 48.1728 32.05H47.4965C47.2604 32.05 47.2389 31.9105 47.2389 31.6314V24.4025C47.2389 24.1772 47.2496 24.0806 47.5502 24.0806H48.2372C48.3874 24.0806 48.4304 24.2085 48.4304 24.4338V26.9648C48.7846 26.3969 49.332 26.1286 50.1899 26.1286C51.4243 26.1286 52.0889 27.3082 52.0889 29.1962C52.088 31.3309 51.2624 32.1671 50.2104 32.1671ZM50.8223 28.7248C50.8223 27.6624 50.426 26.9442 49.6961 26.9442C48.8481 26.9442 48.5162 27.7062 48.5162 28.2526V30.3767C48.5162 30.6664 48.9349 31.3426 49.6639 31.3426C50.426 31.3426 50.8223 30.6772 50.8223 29.6254V28.7248Z" fill="white"/>
<path d="M57.7019 32.0509H57.0158C56.8333 32.0509 56.7582 31.8801 56.7582 31.3855C56.2868 31.9329 55.793 32.1582 55.0416 32.1582C54.1945 32.1582 53.3466 31.6646 53.3466 30.3347V26.6554C53.3466 26.388 53.4002 26.2798 53.5925 26.2798H54.2894C54.4718 26.2798 54.5685 26.3987 54.5685 26.667V30.0771C54.5685 30.6567 54.8252 31.1396 55.5658 31.1396C56.37 31.1396 56.7671 30.4429 56.7671 29.917V26.6894C56.7671 26.4095 56.7788 26.2807 56.9818 26.2807H57.6581C57.8942 26.2807 57.947 26.3996 57.947 26.6778V31.72C57.9479 31.9329 57.9157 32.0509 57.7019 32.0509Z" fill="white"/>
<path d="M62.4151 26.9987C62.3945 27.1051 62.3507 27.1597 62.2541 27.1597C61.9643 27.1597 61.6324 27.2348 61.3846 27.385C60.8909 27.6739 60.5697 28.0719 60.5697 28.4135V31.643C60.5697 31.9211 60.559 32.0499 60.355 32.0499H59.6788C59.4427 32.0499 59.3792 31.9318 59.3792 31.6537V26.6132C59.3792 26.3986 59.4221 26.2796 59.6359 26.2796H60.322C60.4615 26.2796 60.5796 26.344 60.5796 26.5587V27.1051C61.008 26.4934 61.6199 26.2036 62.2747 26.2036C62.3614 26.2036 62.4571 26.2036 62.4464 26.3226L62.4151 26.9987Z" fill="white"/>
<path d="M65.8079 34.3452C64.8105 34.3452 64.3704 34.2387 64.1236 34.1842C63.9187 34.1296 63.8123 34.0983 63.8123 33.9051V33.3587C63.8123 33.2192 63.8874 33.1879 64.2309 33.2728C64.6173 33.3685 65.1102 33.4982 65.6791 33.4982C66.4618 33.4982 66.8267 33.0045 66.859 31.7704C66.859 31.7069 66.8473 31.4591 66.8473 31.384C66.4609 31.9099 65.9251 32.1674 65.1102 32.1674C64.0055 32.1674 63.1897 31.342 63.1897 29.1428C63.1897 27.3193 63.8552 26.1289 65.0458 26.1289C65.7426 26.1289 66.4189 26.3221 66.8482 26.89C66.8482 26.365 66.8911 26.2783 67.1058 26.2783H67.7597C68.0388 26.2783 68.0281 26.4285 68.0281 26.6655V31.2338C68.0281 33.509 67.3089 34.3452 65.8079 34.3452ZM66.7623 28.286C66.7623 27.7387 66.4296 26.9445 65.5923 26.9445C64.8633 26.9445 64.4554 27.685 64.4554 28.7574V29.6588C64.4554 30.6981 64.8302 31.3429 65.6031 31.3429C66.3428 31.3429 66.7614 30.656 66.7614 30.3457V28.286H66.7623Z" fill="white"/>
<path d="M46.5055 44.571H41.761C41.668 44.571 41.6099 44.571 41.6099 44.3501V43.9664C41.6099 42.1062 42.7951 40.9776 43.7844 40.3971C44.9821 39.6879 45.9938 38.9206 45.9938 38.0602C45.9938 37.0139 45.3426 36.4558 44.2156 36.4558C43.076 36.4558 42.5634 36.8851 42.2154 37.0604C42.1224 37.1078 41.8433 36.6069 41.9596 36.5372C42.3201 36.3047 42.9838 35.9326 44.2853 35.9326C45.7621 35.9326 46.6817 36.6186 46.6817 37.9789C46.6817 39.1996 45.356 40.1065 44.1234 40.8631C43.2048 41.4202 42.3326 42.2466 42.2629 43.7223C42.2512 43.9315 42.2745 43.978 42.5187 43.978H46.5073C46.6468 43.978 46.6817 44.0013 46.6817 44.1524V44.4431C46.6799 44.5477 46.6209 44.571 46.5055 44.571Z" fill="white"/>
<path d="M51.2732 44.7221C50.0996 44.7221 48.5986 44.385 48.5986 42.3736V38.8508C48.5986 36.7706 49.2042 35.9326 51.3197 35.9326C52.9942 35.9326 53.8207 36.6069 53.8207 38.7462V41.9211C53.8198 44.5933 52.2733 44.7221 51.2732 44.7221ZM53.1686 38.7453C53.1686 37.0595 52.7617 36.4558 51.3197 36.4558C49.5763 36.4558 49.2507 37.1176 49.2507 38.8392V42.3736C49.2507 43.7804 50.1578 44.1989 51.2848 44.1989C52.3788 44.1989 53.1686 44.0245 53.1686 42.0481V38.7453Z" fill="white"/>
<path d="M60.4588 44.571H55.7144C55.6214 44.571 55.5632 44.571 55.5632 44.3501V43.9664C55.5632 42.1062 56.7484 40.9776 57.7378 40.3971C58.9355 39.6879 59.9472 38.9206 59.9472 38.0602C59.9472 37.0139 59.296 36.4558 58.1689 36.4558C57.0293 36.4558 56.5168 36.8851 56.1688 37.0604C56.0758 37.1078 55.7967 36.6069 55.913 36.5372C56.2735 36.3047 56.9372 35.9326 58.2387 35.9326C59.7155 35.9326 60.6351 36.6186 60.6351 37.9789C60.6351 39.1996 59.3094 40.1065 58.0768 40.8631C57.1581 41.4202 56.286 42.2466 56.2162 43.7223C56.2046 43.9315 56.2278 43.978 56.472 43.978H60.4606C60.6002 43.978 60.6351 44.0013 60.6351 44.1524V44.4431C60.6333 44.5477 60.5751 44.571 60.4588 44.571Z" fill="white"/>
<path d="M65.2266 44.7221C64.053 44.7221 62.552 44.385 62.552 42.3736V38.8508C62.552 36.7706 63.1576 35.9326 65.2731 35.9326C66.9476 35.9326 67.7741 36.6069 67.7741 38.7462V41.9211C67.7741 44.5933 66.2266 44.7221 65.2266 44.7221ZM67.122 38.7453C67.122 37.0595 66.715 36.4558 65.2731 36.4558C63.5297 36.4558 63.2041 37.1176 63.2041 38.8392V42.3736C63.2041 43.7804 64.1111 44.1989 65.2382 44.1989C66.3322 44.1989 67.122 44.0245 67.122 42.0481V38.7453Z" fill="white"/>
<path d="M78.483 0.212402H77.9847V50H78.483V0.212402Z" fill="white"/>
</svg>
