<svg width="77" height="61" viewBox="0 0 77 61" fill="none" xmlns="http://www.w3.org/2000/svg">
<path d="M0.551477 0H0V61H0.551477V0Z" fill="black"/>
<path d="M8.99731 6.1029V17.6973C8.99731 18.0794 9.30586 18.3896 9.68433 18.3896C10.0628 18.3896 10.3723 18.0794 10.3723 17.6973V6.1029C10.3723 5.72195 10.0628 5.4165 9.68433 5.4165C9.30586 5.4165 8.99731 5.72195 8.99731 6.1029Z" fill="black"/>
<path d="M17.783 5.4165C17.403 5.4165 17.0935 5.72195 17.0935 6.1029V17.6973C17.0935 18.0794 17.403 18.3896 17.783 18.3896C18.1656 18.3896 18.4725 18.0794 18.4725 17.6973V6.79499H25.8842C28.1044 6.79499 29.0939 8.03429 29.0939 9.26448C29.0939 10.4813 28.0917 11.7808 25.8842 11.7808H20.4546C20.0788 11.7808 19.7678 12.0881 19.7678 12.4727C19.7678 12.8509 20.0788 13.1602 20.4546 13.1602H25.8842C28.8988 13.1602 30.4686 11.199 30.4686 9.26448C30.4686 7.35084 28.8988 5.4165 25.8842 5.4165H17.783Z" fill="black"/>
<path d="M35.2814 5.12917C34.9962 5.22037 34.8035 5.48328 34.8035 5.78395V17.7775C34.8035 18.1594 35.112 18.4667 35.4925 18.4667C35.869 18.4667 36.1814 18.1594 36.1814 17.7775V7.9107C37.8814 10.2633 42.0955 16.1059 42.0955 16.1059C42.222 16.2849 42.4345 16.3874 42.6527 16.3874C42.8729 16.3874 43.0763 16.2849 43.2091 16.1059C43.2091 16.1059 47.3406 10.4107 49.0304 8.08583V17.6861C49.0304 18.0652 49.341 18.3755 49.7211 18.3755C50.0964 18.3755 50.4054 18.0652 50.4054 17.6861V5.96567C50.4054 5.66978 50.2171 5.40687 49.9331 5.3168C49.6509 5.22037 49.341 5.31953 49.166 5.56129C49.166 5.56129 43.5987 13.222 42.6561 14.5236C41.7075 13.2193 36.0485 5.37844 36.0485 5.37844C35.8744 5.14054 35.5625 5.03569 35.2814 5.12917Z" fill="black"/>
<path d="M70.2346 17.0655L63.042 5.46222C62.9151 5.25844 62.6898 5.14062 62.4548 5.14062C62.2149 5.14062 61.9942 5.2623 61.8716 5.46404L54.6824 17.1501C54.4844 17.4776 54.5879 17.9004 54.9112 18.1031C55.2343 18.3012 55.658 18.2002 55.858 17.8766C55.858 17.8766 61.4756 8.73911 62.458 7.13592C62.9816 7.98038 64.8004 10.9116 66.3928 13.4877H60.8131C60.4358 13.4877 60.1222 13.7964 60.1222 14.175C60.1222 14.5576 60.4358 14.8644 60.8131 14.8644H67.2529C68.2868 16.5304 69.0687 17.7985 69.0687 17.7985C69.2665 18.1204 69.6933 18.2213 70.0134 18.0212C70.3397 17.8174 70.44 17.3928 70.2346 17.0655Z" fill="black"/>
<path d="M76.7248 5.5717L73.9847 3.14337C73.7615 2.93959 73.3651 2.91252 73.171 3.14337C72.9442 3.4106 73.0309 3.73538 73.2586 3.93894L75.5898 6.0136L73.2967 8.05757C73.0647 8.25748 72.9628 8.66209 73.171 8.88384C73.3946 9.12174 73.7615 9.08375 73.9847 8.88384L76.7248 6.45255C77.0915 6.11731 77.0915 5.86804 76.7248 5.5717Z" fill="#ED1C24"/>
<path d="M73.2664 5.5717L70.5328 3.14337C70.3081 2.93959 69.9087 2.91252 69.7171 3.14337C69.4907 3.4106 69.5759 3.73538 69.8034 3.93894L72.1314 6.0136L69.8383 8.05757C69.617 8.25748 69.5105 8.66209 69.7171 8.88384C69.9382 9.12174 70.3081 9.08375 70.5328 8.88384L73.2664 6.45255C73.6362 6.11731 73.6424 5.86804 73.2664 5.5717Z" fill="#ED1C24"/>
<path d="M9.57673 30.6392H9.09519C8.97145 30.6392 8.95056 30.5771 8.95056 30.3981V27.1383C8.95056 27.0005 8.97803 26.9313 9.11562 26.9313H9.54926C9.71409 26.9313 9.71409 26.9866 9.71409 27.1383V30.3981C9.71409 30.5771 9.70751 30.6392 9.57673 30.6392ZM9.57673 26.27H9.12266C8.98507 26.27 8.95056 26.2354 8.95056 26.0425V25.7944C8.95056 25.6359 8.97803 25.5945 9.13628 25.5945H9.5697C9.72136 25.5945 9.71409 25.6773 9.71409 25.8287V26.063C9.71409 26.2286 9.68685 26.27 9.57673 26.27Z" fill="black"/>
<path d="M13.7663 30.6391H13.3192C13.2021 30.6391 13.1401 30.5633 13.1401 30.3909V28.1994C13.1401 27.8341 12.9682 27.5173 12.4933 27.5173C11.9636 27.5173 11.7297 27.9651 11.7297 28.3026V30.3771C11.7297 30.5565 11.7231 30.6391 11.5924 30.6391H11.1589C11.0073 30.6391 10.9662 30.5633 10.9662 30.3841V27.145C10.9662 27.0072 10.9937 26.9312 11.1312 26.9312H11.5715C11.6886 26.9312 11.737 27.0483 11.737 27.3656C11.9708 27.0415 12.3078 26.8486 12.8306 26.8486C13.4153 26.8486 13.9175 27.1518 13.9175 28.034V30.322C13.9175 30.5495 13.89 30.6391 13.7663 30.6391Z" fill="black"/>
<path d="M16.876 27.5584H16.2432V29.7914C16.2432 30.0188 16.3533 30.1567 16.539 30.1567C16.6766 30.1567 16.7456 30.1496 16.883 30.1153C16.9586 30.1016 17.0133 30.6045 16.9516 30.6322C16.8415 30.6736 16.5599 30.7148 16.3052 30.7148C15.6447 30.7148 15.4452 30.267 15.4452 29.8121V27.5516H15.1012C15.012 27.5516 14.9911 27.4964 14.9911 27.407V27.145C14.9911 27.0347 15.012 27.0074 15.1423 27.0074H15.4726V26.318C15.4726 26.1941 15.5553 26.1595 15.6654 26.1458L16.0368 26.0767C16.1815 26.0492 16.2225 26.1113 16.2225 26.2491V27.0074H16.883C17.0133 27.0074 17.0413 27.0692 17.0413 27.1586V27.4206C17.0413 27.5102 17.0206 27.5584 16.876 27.5584Z" fill="black"/>
<path d="M19.5587 27.331C19.0088 27.331 18.7886 27.7995 18.7813 28.351C18.7813 28.4475 18.7747 28.4886 18.8708 28.4886H20.2609C20.3293 28.4886 20.3365 28.4543 20.3365 28.3579C20.3227 27.6963 20.1229 27.331 19.5587 27.331ZM20.8042 29.0127H18.7606C18.7606 29.8121 19.1527 30.136 19.7996 30.136C20.3638 30.136 20.6941 30.0257 20.8178 29.9845C20.9416 29.936 21.0108 29.9704 21.0108 30.0463V30.3909C21.0108 30.5151 20.9625 30.5424 20.7833 30.5976C20.6871 30.6322 20.171 30.7148 19.7653 30.7148C18.582 30.7148 17.9767 30.1842 17.9767 28.8196C17.9767 27.4963 18.5268 26.835 19.5723 26.835C20.5288 26.835 21.0864 27.3656 21.0864 28.289V28.7161C21.0864 28.9162 21.0585 29.0127 20.8042 29.0127Z" fill="black"/>
<path d="M24.1887 27.393C24.1751 27.4621 24.1476 27.4965 24.0858 27.4965C23.9001 27.4965 23.6869 27.5447 23.5287 27.6413C23.2122 27.8274 23.0056 28.0821 23.0056 28.3027V30.3772C23.0056 30.5564 22.999 30.6389 22.8682 30.6389H22.4348C22.2832 30.6389 22.2421 30.5634 22.2421 30.3842V27.1449C22.2421 27.0073 22.2695 26.9313 22.4069 26.9313H22.8474C22.937 26.9313 23.0126 26.9727 23.0126 27.1103V27.4621C23.2878 27.0691 23.6799 26.8833 24.0995 26.8833C24.1546 26.8833 24.2166 26.8833 24.2096 26.959L24.1887 27.393Z" fill="black"/>
<path d="M27.9314 30.6391H27.4844C27.3672 30.6391 27.3055 30.5633 27.3055 30.3909V28.1994C27.3055 27.8341 27.1334 27.5173 26.6586 27.5173C26.1287 27.5173 25.8949 27.9651 25.8949 28.3026V30.3771C25.8949 30.5565 25.8883 30.6391 25.7575 30.6391H25.3241C25.1724 30.6391 25.1313 30.5633 25.1313 30.3841V27.145C25.1313 27.0072 25.1588 26.9312 25.2964 26.9312H25.7366C25.8538 26.9312 25.9021 27.0483 25.9021 27.3656C26.136 27.0415 26.4729 26.8486 26.996 26.8486C27.5804 26.8486 28.0826 27.1518 28.0826 28.034V30.322C28.0826 30.5495 28.0552 30.6391 27.9314 30.6391Z" fill="black"/>
<path d="M31.5296 28.2339C31.5296 27.9307 31.3166 27.3587 30.7727 27.3587C30.305 27.3587 30.0507 27.6894 30.0507 28.5027V29.0816C30.0507 29.757 30.2981 30.191 30.7867 30.191C31.2547 30.191 31.5296 29.6879 31.5296 29.495V28.2339ZM32.183 30.639H31.7498C31.6468 30.639 31.585 30.6183 31.585 30.4394V30.1496C31.447 30.4462 30.9999 30.7148 30.4702 30.7148C29.7959 30.7148 29.239 30.1773 29.239 28.8059C29.239 27.593 29.6652 26.835 30.4566 26.835C31.0481 26.835 31.385 27.0556 31.585 27.407V27.1036C31.585 27.0003 31.6261 26.9312 31.7087 26.9312H32.1485C32.3413 26.9312 32.3485 26.9933 32.3485 27.1381V30.3702C32.3485 30.5494 32.3347 30.639 32.183 30.639Z" fill="black"/>
<path d="M35.2991 27.5584H34.6663V29.7914C34.6663 30.0188 34.7764 30.1567 34.9621 30.1567C35.0997 30.1567 35.1687 30.1496 35.3061 30.1153C35.3817 30.1016 35.4364 30.6045 35.3747 30.6322C35.2646 30.6736 34.983 30.7148 34.7283 30.7148C34.0678 30.7148 33.8683 30.267 33.8683 29.8121V27.5516H33.5243C33.4351 27.5516 33.4142 27.4964 33.4142 27.407V27.145C33.4142 27.0347 33.4351 27.0074 33.5654 27.0074H33.8957V26.318C33.8957 26.1941 33.9784 26.1595 34.0885 26.1458L34.4599 26.0767C34.6046 26.0492 34.6456 26.1113 34.6456 26.2491V27.0074H35.3061C35.4364 27.0074 35.4643 27.0692 35.4643 27.1586V27.4206C35.4643 27.5102 35.4437 27.5584 35.2991 27.5584Z" fill="black"/>
<path d="M37.129 30.6392H36.6474C36.5237 30.6392 36.5031 30.5771 36.5031 30.3981V27.1383C36.5031 27.0005 36.5303 26.9313 36.6679 26.9313H37.1015C37.2666 26.9313 37.2666 26.9866 37.2666 27.1383V30.3981C37.2666 30.5771 37.26 30.6392 37.129 30.6392ZM37.129 26.27H36.6749C36.5373 26.27 36.5031 26.2354 36.5031 26.0425V25.7944C36.5031 25.6359 36.5303 25.5945 36.6885 25.5945H37.122C37.2736 25.5945 37.2666 25.6773 37.2666 25.8287V26.063C37.2666 26.2286 37.2391 26.27 37.129 26.27Z" fill="black"/>
<path d="M40.9539 28.4197C40.9539 27.8136 40.7337 27.3656 40.1078 27.3656C39.6056 27.3656 39.2341 27.7033 39.2341 28.4543V29.1298C39.2341 29.881 39.6262 30.1842 40.1148 30.1842C40.6374 30.1842 40.9539 29.7293 40.9539 29.047V28.4197ZM40.1012 30.7148C39.0348 30.7148 38.4156 30.2738 38.4156 28.8059C38.4156 27.3656 39.0965 26.835 40.1357 26.835C41.1533 26.835 41.7384 27.386 41.7384 28.7991C41.7384 30.0395 41.126 30.7148 40.1012 30.7148Z" fill="black"/>
<path d="M45.6875 30.6391H45.2405C45.1233 30.6391 45.0613 30.5633 45.0613 30.3909V28.1994C45.0613 27.8341 44.8895 27.5173 44.4145 27.5173C43.8848 27.5173 43.651 27.9651 43.651 28.3026V30.3771C43.651 30.5565 43.6444 30.6391 43.5136 30.6391H43.0802C42.9285 30.6391 42.8875 30.5633 42.8875 30.3841V27.145C42.8875 27.0072 42.9149 26.9312 43.0523 26.9312H43.4927C43.6099 26.9312 43.658 27.0483 43.658 27.3656C43.8921 27.0415 44.229 26.8486 44.7519 26.8486C45.3365 26.8486 45.8387 27.1518 45.8387 28.034V30.322C45.8387 30.5495 45.8113 30.6391 45.6875 30.6391Z" fill="black"/>
<path d="M49.2856 28.2339C49.2856 27.9307 49.0724 27.3587 48.5286 27.3587C48.0607 27.3587 47.8066 27.6894 47.8066 28.5027V29.0816C47.8066 29.757 48.0541 30.191 48.5427 30.191C49.0106 30.191 49.2856 29.6879 49.2856 29.495V28.2339ZM49.939 30.639H49.5058C49.4027 30.639 49.3407 30.6183 49.3407 30.4394V30.1496C49.2029 30.4462 48.7559 30.7148 48.2262 30.7148C47.5519 30.7148 46.9948 30.1773 46.9948 28.8059C46.9948 27.593 47.4209 26.835 48.2124 26.835C48.804 26.835 49.1409 27.0556 49.3407 27.407V27.1036C49.3407 27.0003 49.3818 26.9312 49.4647 26.9312H49.9045C50.0972 26.9312 50.1043 26.9933 50.1043 27.1381V30.3702C50.1043 30.5494 50.0906 30.639 49.939 30.639Z" fill="black"/>
<path d="M52.1197 30.6393H51.6656C51.521 30.6393 51.4938 30.6047 51.4938 30.4118V25.7048C51.4938 25.5809 51.521 25.5188 51.6586 25.5188H52.0922C52.2573 25.5188 52.2573 25.5741 52.2573 25.7255V30.3982C52.2573 30.5774 52.2507 30.6393 52.1197 30.6393Z" fill="black"/>
<path d="M11.2621 37.0484C11.2621 36.3592 11.0008 35.8841 10.5331 35.8841C9.99637 35.8841 9.78318 36.3938 9.78318 36.7454V38.0823C9.78318 38.2681 10.0581 38.7093 10.5261 38.7093C11.0217 38.7093 11.2621 38.2961 11.2621 37.6279V37.0484ZM10.8425 39.2399C10.3194 39.2399 9.97548 39.0885 9.72801 38.7785V40.3773C9.72801 40.5431 9.70054 40.605 9.60405 40.605H9.14997C8.98514 40.605 8.96448 40.5497 8.96448 40.3773V35.7047C8.96448 35.5532 8.96448 35.4565 9.14338 35.4565H9.56295C9.66603 35.4565 9.72801 35.505 9.72801 35.6499V35.9048C9.98979 35.533 10.3955 35.3601 10.8836 35.3601C11.6472 35.3601 12.0738 36.1254 12.0738 37.2965C12.0738 38.7093 11.5514 39.2399 10.8425 39.2399Z" fill="black"/>
<path d="M15.1699 35.9182C15.1563 35.9873 15.1288 36.0219 15.0668 36.0219C14.8811 36.0219 14.6681 36.0701 14.5099 36.1668C14.1932 36.3526 13.9868 36.6073 13.9868 36.8279V38.9023C13.9868 39.082 13.9802 39.1648 13.8492 39.1648H13.416C13.2644 39.1648 13.2233 39.0884 13.2233 38.9096V35.67C13.2233 35.5329 13.2507 35.4567 13.3881 35.4567H13.8286C13.9182 35.4567 13.9938 35.4983 13.9938 35.6361V35.9873C14.2688 35.595 14.6611 35.4089 15.0807 35.4089C15.1358 35.4089 15.1978 35.4089 15.1908 35.4842L15.1699 35.9182Z" fill="black"/>
<path d="M18.3411 36.9453C18.3411 36.339 18.1211 35.8907 17.495 35.8907C16.9928 35.8907 16.6213 36.2287 16.6213 36.9799V37.6552C16.6213 38.4064 17.0134 38.7093 17.502 38.7093C18.0247 38.7093 18.3411 38.2549 18.3411 37.5724V36.9453ZM17.4884 39.2399C16.422 39.2399 15.8029 38.7994 15.8029 37.3311C15.8029 35.8907 16.4837 35.3601 17.5229 35.3601C18.5407 35.3601 19.1256 35.9116 19.1256 37.3245C19.1256 38.5649 18.5132 39.2399 17.4884 39.2399Z" fill="black"/>
<path d="M20.9352 34.7951H20.5016C20.364 34.7951 20.3295 34.7747 20.3295 34.5679V34.3337C20.3295 34.1749 20.357 34.1201 20.5152 34.1201H20.9282C21.093 34.1201 21.0728 34.1749 21.0728 34.3266V34.5889C21.0728 34.754 21.0656 34.7951 20.9352 34.7951ZM20.295 40.6182C20.02 40.6182 19.7862 40.5561 19.669 40.5156C19.6005 40.4876 19.6831 39.9707 19.7653 39.9777C19.8552 39.9982 19.9719 40.0189 20.0956 40.0189C20.2814 40.0189 20.3159 39.8121 20.3159 39.6331V35.6908C20.3159 35.5393 20.3431 35.4565 20.5016 35.4565H20.9352C21.059 35.4565 21.1073 35.5186 21.1073 35.6842V39.743C21.1071 40.2261 20.8869 40.6182 20.295 40.6182Z" fill="black"/>
<path d="M23.8377 35.8561C23.2879 35.8561 23.0676 36.3253 23.0606 36.8766C23.0606 36.9733 23.054 37.0145 23.1498 37.0145H24.54C24.6085 37.0145 24.6156 36.9799 24.6156 36.8835C24.6017 36.2221 24.4019 35.8561 23.8377 35.8561ZM25.0833 37.5385H23.0397C23.0397 38.3375 23.4318 38.6618 24.0786 38.6618C24.6428 38.6618 24.9732 38.5508 25.0969 38.5103C25.2209 38.4614 25.2899 38.496 25.2899 38.5722V38.9167C25.2899 39.0409 25.2415 39.0682 25.0624 39.1232C24.9661 39.1578 24.4501 39.2402 24.0441 39.2402C22.861 39.2402 22.2557 38.7095 22.2557 37.3454C22.2557 36.0219 22.8059 35.3601 23.8514 35.3601C24.8079 35.3601 25.3655 35.8907 25.3655 36.8148V37.2417C25.3655 37.4418 25.3376 37.5385 25.0833 37.5385Z" fill="black"/>
<path d="M28.1036 39.2399C27.0372 39.2399 26.411 38.7994 26.411 37.3311C26.411 35.8907 27.0989 35.3601 28.1381 35.3601C28.7225 35.3601 29.1284 35.5116 29.3968 35.8775C29.486 36.0147 28.9082 36.4008 28.8396 36.2769C28.7023 36.0563 28.4886 35.8907 28.1311 35.8907C27.622 35.8907 27.2501 36.2287 27.2501 36.9799V37.6552C27.2501 38.4064 27.6425 38.7093 28.1311 38.7093C28.4405 38.7093 28.6814 38.5233 28.8326 38.2751C28.9016 38.1309 29.4588 38.3993 29.4038 38.5233C29.1629 38.9715 28.7363 39.2399 28.1036 39.2399Z" fill="black"/>
<path d="M32.0933 36.0838H31.4605V38.317C31.4605 38.5442 31.5706 38.6818 31.7563 38.6818C31.8939 38.6818 31.9629 38.6748 32.1003 38.6406C32.1759 38.627 32.2306 39.1301 32.1689 39.1576C32.0587 39.1992 31.7772 39.2399 31.5225 39.2399C30.862 39.2399 30.6625 38.7921 30.6625 38.3372V36.0768H30.3185C30.2293 36.0768 30.2084 36.0217 30.2084 35.9323V35.6701C30.2084 35.5603 30.2293 35.533 30.3596 35.533H30.6899V34.8438C30.6899 34.7192 30.7726 34.6851 30.8827 34.671L31.2541 34.6018C31.3987 34.5743 31.4398 34.6364 31.4398 34.7747V35.533H32.1003C32.2306 35.533 32.2588 35.5948 32.2588 35.6844V35.9462C32.2588 36.0356 32.2379 36.0838 32.0933 36.0838Z" fill="black"/>
<path d="M13.6635 47.6898H13.2094C13.0577 47.6898 13.0373 47.6137 13.0373 47.4417V45.2499C13.0373 44.8844 12.941 44.5606 12.466 44.5606C12.019 44.5606 11.8401 44.9124 11.7715 45.2499V47.3728C11.7715 47.5998 11.737 47.6898 11.6133 47.6898H11.1456C11.0355 47.6898 10.9937 47.6137 10.9937 47.4417V45.2499C10.9937 44.8844 10.8974 44.5606 10.4159 44.5606C9.88621 44.5606 9.71434 45.0154 9.71434 45.353V47.4276C9.71434 47.6071 9.70775 47.6898 9.57675 47.6898H9.14356C8.9919 47.6898 8.95081 47.6137 8.95081 47.4347V44.1953C8.95081 44.0579 8.97805 43.9817 9.11564 43.9817H9.55586C9.67324 43.9817 9.72138 44.0509 9.72138 44.3682C9.96181 44.0438 10.2302 43.8994 10.7117 43.8994C11.1456 43.8994 11.4616 44.0648 11.6614 44.5194C11.9227 44.1332 12.2531 43.8994 12.7553 43.8994C13.3331 43.8994 13.8147 44.2024 13.8147 45.0846V47.3728C13.8147 47.5998 13.7872 47.6898 13.6635 47.6898Z" fill="black"/>
<path d="M17.2611 45.2842C17.2611 44.9808 17.0479 44.4093 16.5041 44.4093C16.0364 44.4093 15.7821 44.74 15.7821 45.5533V46.1321C15.7821 46.8076 16.0296 47.2415 16.5182 47.2415C16.9861 47.2415 17.2611 46.7384 17.2611 46.5453V45.2842ZM17.9145 47.6898H17.4813C17.3782 47.6898 17.3162 47.6691 17.3162 47.4896V47.1999C17.1784 47.4967 16.7314 47.7651 16.2017 47.7651C15.5274 47.7651 14.9705 47.2279 14.9705 45.8562C14.9705 44.6435 15.3966 43.8853 16.1881 43.8853C16.7795 43.8853 17.1164 44.1059 17.3162 44.4575V44.1541C17.3162 44.0508 17.3573 43.9817 17.4402 43.9817H17.88C18.0727 43.9817 18.08 44.0438 18.08 44.1887V47.4205C18.08 47.5997 18.0661 47.6898 17.9145 47.6898Z" fill="black"/>
<path d="M22.1315 47.6898H21.6845C21.5673 47.6898 21.5053 47.6137 21.5053 47.4417V45.2499C21.5053 44.8844 21.3334 44.5678 20.8585 44.5678C20.3288 44.5678 20.095 45.0154 20.095 45.353V47.4276C20.095 47.6071 20.0884 47.6898 19.9576 47.6898H19.5242C19.3725 47.6898 19.3314 47.6137 19.3314 47.4347V44.1953C19.3314 44.0579 19.3589 43.9817 19.4963 43.9817H19.9367C20.0539 43.9817 20.102 44.0986 20.102 44.4159C20.3361 44.0921 20.673 43.8994 21.1959 43.8994C21.7805 43.8994 22.2827 44.2024 22.2827 45.0846V47.3728C22.2827 47.5998 22.2552 47.6898 22.1315 47.6898Z" fill="black"/>
<path d="M25.7297 45.2842C25.7297 44.9808 25.5165 44.4093 24.9727 44.4093C24.5048 44.4093 24.2507 44.74 24.2507 45.5533V46.1321C24.2507 46.8076 24.4982 47.2415 24.9868 47.2415C25.4547 47.2415 25.7297 46.7384 25.7297 46.5453V45.2842ZM26.3831 47.6898H25.9499C25.8468 47.6898 25.7848 47.6691 25.7848 47.4896V47.1999C25.6468 47.4967 25.2 47.7651 24.6703 47.7651C23.996 47.7651 23.4388 47.2279 23.4388 45.8562C23.4388 44.6435 23.8652 43.8853 24.6565 43.8853C25.2481 43.8853 25.585 44.1059 25.7848 44.4575V44.1541C25.7848 44.0508 25.8259 43.9817 25.9088 43.9817H26.3486C26.5413 43.9817 26.5484 44.0438 26.5484 44.1887V47.4205C26.5484 47.5997 26.5347 47.6898 26.3831 47.6898Z" fill="black"/>
<path d="M29.9877 45.2706C29.9877 44.9189 29.7748 44.4093 29.2381 44.4093C28.7701 44.4093 28.5088 44.8844 28.5088 45.5735V46.153C28.5088 46.8212 28.7495 47.2345 29.2451 47.2345C29.7194 47.2345 29.9877 46.7932 29.9877 46.594V45.2706ZM29.3754 49.1647C28.7356 49.1647 28.4536 49.0956 28.2952 49.061C28.1648 49.0264 28.0961 49.0062 28.0961 48.882V48.5304C28.0961 48.441 28.1442 48.4201 28.3644 48.4756C28.6119 48.5374 28.9284 48.6198 29.2928 48.6198C29.795 48.6198 30.0288 48.3027 30.0497 47.5103C30.0497 47.4692 30.0431 47.3107 30.0431 47.2624C29.795 47.5997 29.451 47.7651 28.9284 47.7651C28.2198 47.7651 27.6971 47.2345 27.6971 45.8214C27.6971 44.6506 28.1233 43.8853 28.8868 43.8853C29.3343 43.8853 29.7675 44.0092 30.0431 44.3747C30.0431 44.0367 30.0706 43.9817 30.208 43.9817H30.6275C30.8067 43.9817 30.7996 44.0783 30.7996 44.2298V47.1658C30.7996 48.6271 30.339 49.1647 29.3754 49.1647Z" fill="black"/>
<path d="M33.5371 44.381C32.9872 44.381 32.767 44.8502 32.7599 45.4018C32.7599 45.4982 32.7534 45.5394 32.8492 45.5394H34.2393C34.3079 45.5394 34.3149 45.5048 34.3149 45.4084C34.3013 44.747 34.1013 44.381 33.5371 44.381ZM34.7826 46.0634H32.7391C32.7391 46.8624 33.1312 47.1867 33.7782 47.1867C34.3424 47.1867 34.6725 47.0757 34.7963 47.0352C34.9202 46.9863 34.9892 47.0209 34.9892 47.0971V47.4416C34.9892 47.5658 34.9409 47.5931 34.7617 47.6482C34.6655 47.6825 34.1494 47.7648 33.7437 47.7648C32.5606 47.7648 31.9553 47.2345 31.9553 45.8703C31.9553 44.5468 32.5052 43.885 33.551 43.885C34.5072 43.885 35.0648 44.4156 35.0648 45.3397V45.7666C35.0648 45.9667 35.0369 46.0634 34.7826 46.0634Z" fill="black"/>
<path d="M40.9332 47.6898H40.4792C40.3275 47.6898 40.3071 47.6137 40.3071 47.4417V45.2499C40.3071 44.8844 40.2108 44.5606 39.7358 44.5606C39.289 44.5606 39.1099 44.9124 39.0413 45.2499V47.3728C39.0413 47.5998 39.0068 47.6898 38.8831 47.6898H38.4154C38.3053 47.6898 38.2635 47.6137 38.2635 47.4417V45.2499C38.2635 44.8844 38.1672 44.5606 37.6857 44.5606C37.156 44.5606 36.9841 45.0154 36.9841 45.353V47.4276C36.9841 47.6071 36.9775 47.6898 36.8465 47.6898H36.4133C36.2617 47.6898 36.2206 47.6137 36.2206 47.4347V44.1953C36.2206 44.0579 36.2478 43.9817 36.3854 43.9817H36.8259C36.943 43.9817 36.9912 44.0509 36.9912 44.3682C37.2316 44.0438 37.4999 43.8994 37.9815 43.8994C38.4154 43.8994 38.7314 44.0648 38.9312 44.5194C39.1925 44.1332 39.5229 43.8994 40.0251 43.8994C40.6029 43.8994 41.0844 44.2024 41.0844 45.0846V47.3728C41.0844 47.5998 41.057 47.6898 40.9332 47.6898Z" fill="black"/>
<path d="M43.8221 44.381C43.2722 44.381 43.052 44.8502 43.0449 45.4018C43.0449 45.4982 43.0384 45.5394 43.1342 45.5394H44.5243C44.5929 45.5394 44.5999 45.5048 44.5999 45.4084C44.5861 44.747 44.3861 44.381 43.8221 44.381ZM45.0676 46.0634H43.0238C43.0238 46.8624 43.4159 47.1867 44.0628 47.1867C44.6272 47.1867 44.9573 47.0757 45.081 47.0352C45.205 46.9863 45.274 47.0209 45.274 47.0971V47.4416C45.274 47.5658 45.2257 47.5931 45.0465 47.6482C44.9503 47.6825 44.4342 47.7648 44.0285 47.7648C42.8452 47.7648 42.2399 47.2345 42.2399 45.8703C42.2399 44.5468 42.79 43.885 43.8355 43.885C44.792 43.885 45.3496 44.4156 45.3496 45.3397V45.7666C45.3498 45.9667 45.3219 46.0634 45.0676 46.0634Z" fill="black"/>
<path d="M49.3053 47.6898H48.8578C48.7411 47.6898 48.6794 47.6137 48.6794 47.4417V45.2499C48.6794 44.8844 48.5073 44.5678 48.0323 44.5678C47.5026 44.5678 47.2688 45.0154 47.2688 45.353V47.4276C47.2688 47.6071 47.2622 47.6898 47.1314 47.6898H46.698C46.5463 47.6898 46.5052 47.6137 46.5052 47.4347V44.1953C46.5052 44.0579 46.5327 43.9817 46.6701 43.9817H47.1105C47.2277 43.9817 47.276 44.0986 47.276 44.4159C47.5099 44.0921 47.8466 43.8994 48.3697 43.8994C48.9543 43.8994 49.4565 44.2024 49.4565 45.0846V47.3728C49.4565 47.5998 49.4291 47.6898 49.3053 47.6898Z" fill="black"/>
<path d="M52.4149 44.609H51.7822V46.8421C51.7822 47.0694 51.8923 47.207 52.078 47.207C52.2156 47.207 52.2846 47.1999 52.422 47.1658C52.4976 47.1521 52.5525 47.6552 52.4905 47.6828C52.3804 47.7244 52.0989 47.7651 51.8441 47.7651C51.1837 47.7651 50.9841 47.3173 50.9841 46.8624V44.6019H50.6401C50.5509 44.6019 50.53 44.5469 50.53 44.4575V44.1953C50.53 44.0854 50.5509 44.0581 50.6812 44.0581H51.0116V43.369C51.0116 43.2443 51.0942 43.2102 51.2043 43.1961L51.5758 43.127C51.7204 43.0995 51.7615 43.1616 51.7615 43.2996V44.0581H52.422C52.5525 44.0581 52.5804 44.12 52.5804 44.2094V44.4711C52.5804 44.5607 52.5595 44.609 52.4149 44.609Z" fill="black"/>
<path d="M11.1382 53.8101C11.1382 53.5067 10.9251 52.9349 10.3813 52.9349C9.9136 52.9349 9.65932 53.2651 9.65932 54.0784V54.6577C9.65932 55.3325 9.90679 55.7667 10.3954 55.7667C10.8633 55.7667 11.1382 55.2636 11.1382 55.071V53.8101ZM11.7917 56.215H11.3585C11.2554 56.215 11.1936 56.1945 11.1936 56.0153V55.7255C11.0556 56.0219 10.6086 56.2907 10.0789 56.2907C9.40458 56.2907 8.84766 55.7535 8.84766 54.3818C8.84766 53.1685 9.27381 52.4109 10.0653 52.4109C10.6567 52.4109 10.9936 52.6315 11.1936 52.9827V52.6797C11.1936 52.576 11.2347 52.5069 11.3174 52.5069H11.7572C11.9499 52.5069 11.9572 52.569 11.9572 52.7143V55.9461C11.9572 56.1256 11.9433 56.215 11.7917 56.215Z" fill="black"/>
<path d="M14.289 56.2907C13.6147 56.2907 13.2433 56.1458 13.1059 56.0701C13.0369 56.036 13.0643 55.4983 13.2017 55.5461C13.3397 55.595 13.5802 55.7189 14.1169 55.7189C14.5639 55.7189 14.8187 55.5879 14.8187 55.2361C14.8187 54.9536 14.5848 54.733 14.1235 54.4922C13.6011 54.2233 13.1334 53.9472 13.1334 53.3893C13.1334 52.7209 13.7795 52.4043 14.4747 52.4043C14.9835 52.4043 15.3138 52.4796 15.4035 52.5212C15.4791 52.5558 15.3554 53.0518 15.2382 53.0309C15.1215 52.9968 14.7912 52.9206 14.5228 52.9206C14.1235 52.9206 13.9039 53.072 13.9039 53.3689C13.9039 53.5824 14.1998 53.7612 14.5574 53.9543C15.2037 54.2988 15.6097 54.6232 15.6097 55.2636C15.6097 56.1113 14.9079 56.2907 14.289 56.2907Z" fill="black"/>
<path d="M17.8114 56.2907C17.1371 56.2907 16.7656 56.1458 16.6283 56.0701C16.5593 56.036 16.5865 55.4983 16.7241 55.5461C16.8621 55.595 17.1026 55.7189 17.6393 55.7189C18.0863 55.7189 18.3411 55.5879 18.3411 55.2361C18.3411 54.9536 18.1072 54.733 17.6459 54.4922C17.1235 54.2233 16.6555 53.9472 16.6555 53.3893C16.6555 52.7209 17.3019 52.4043 17.9971 52.4043C18.5059 52.4043 18.8362 52.4796 18.9259 52.5212C19.0015 52.5558 18.8778 53.0518 18.7606 53.0309C18.6439 52.9968 18.3136 52.9206 18.0452 52.9206C17.6459 52.9206 17.4263 53.072 17.4263 53.3689C17.4263 53.5824 17.7222 53.7612 18.0797 53.9543C18.7261 54.2988 19.1321 54.6232 19.1321 55.2636C19.1321 56.1113 18.4303 56.2907 17.8114 56.2907Z" fill="black"/>
<path d="M22.6889 53.9961C22.6889 53.3893 22.4689 52.9415 21.8428 52.9415C21.3406 52.9415 20.9691 53.2795 20.9691 54.0307V54.7055C20.9691 55.4567 21.3614 55.7601 21.8498 55.7601C22.3725 55.7601 22.6889 55.3052 22.6889 54.6232V53.9961ZM21.8362 56.2907C20.7698 56.2907 20.1509 55.8502 20.1509 54.3818C20.1509 52.9415 20.8315 52.4109 21.8707 52.4109C22.8885 52.4109 23.4734 52.9624 23.4734 54.3753C23.4734 55.6152 22.861 56.2907 21.8362 56.2907Z" fill="black"/>
<path d="M26.205 56.2907C25.1386 56.2907 24.5125 55.8502 24.5125 54.3818C24.5125 52.9415 25.2004 52.4109 26.2395 52.4109C26.8239 52.4109 27.2299 52.5624 27.4982 52.9276C27.5875 53.0654 27.0097 53.4512 26.9411 53.3272C26.8037 53.1066 26.5901 52.9415 26.2325 52.9415C25.7235 52.9415 25.3516 53.2795 25.3516 54.0307V54.7055C25.3516 55.4567 25.7439 55.7601 26.2325 55.7601C26.542 55.7601 26.7828 55.5741 26.934 55.3259C27.0031 55.1813 27.5602 55.4501 27.5053 55.5741C27.2644 56.0219 26.8378 56.2907 26.205 56.2907Z" fill="black"/>
<path d="M29.1218 56.2147H28.6402C28.5165 56.2147 28.4956 56.1528 28.4956 55.9738V52.714C28.4956 52.5757 28.5231 52.5068 28.6607 52.5068H29.0943C29.2591 52.5068 29.2591 52.5621 29.2591 52.714V55.9738C29.2591 56.1528 29.2525 56.2147 29.1218 56.2147ZM29.1218 51.8454H28.6677C28.5301 51.8454 28.4956 51.8108 28.4956 51.6182V51.3703C28.4956 51.2118 28.5231 51.1699 28.6813 51.1699H29.1147C29.2664 51.1699 29.2591 51.2529 29.2591 51.4042V51.6387C29.2591 51.8042 29.2319 51.8454 29.1218 51.8454Z" fill="black"/>
<path d="M32.699 53.8101C32.699 53.5067 32.4859 52.9349 31.9421 52.9349C31.4744 52.9349 31.2201 53.2651 31.2201 54.0784V54.6577C31.2201 55.3325 31.4676 55.7667 31.9562 55.7667C32.4241 55.7667 32.699 55.2636 32.699 55.071V53.8101ZM33.3525 56.215H32.9193C32.8162 56.215 32.7544 56.1945 32.7544 56.0153V55.7255C32.6164 56.0219 32.1694 56.2907 31.6397 56.2907C30.9654 56.2907 30.4084 55.7535 30.4084 54.3818C30.4084 53.1685 30.8346 52.4109 31.6261 52.4109C32.2175 52.4109 32.5544 52.6315 32.7544 52.9827V52.6797C32.7544 52.576 32.7955 52.5069 32.8782 52.5069H33.318C33.5107 52.5069 33.518 52.569 33.518 52.7143V55.9461C33.518 56.1256 33.5041 56.215 33.3525 56.215Z" fill="black"/>
<path d="M36.4686 53.1338H35.8359V55.367C35.8359 55.5947 35.946 55.7325 36.1317 55.7325C36.2693 55.7325 36.3383 55.7252 36.4757 55.6913C36.5513 55.677 36.606 56.1801 36.5442 56.2076C36.4341 56.2492 36.1526 56.2904 35.8978 56.2904C35.2372 56.2904 35.0378 55.8428 35.0378 55.3879V53.1272H34.6939C34.6046 53.1272 34.5837 53.0717 34.5837 52.9824V52.7206C34.5837 52.6103 34.6046 52.583 34.7349 52.583H35.0653V51.8938C35.0653 51.7697 35.1479 51.7351 35.258 51.7215L35.6295 51.6523C35.7741 51.625 35.8152 51.6869 35.8152 51.8247V52.583H36.4757C36.606 52.583 36.6339 52.6448 36.6339 52.7344V52.9967C36.6339 53.0861 36.6132 53.1338 36.4686 53.1338Z" fill="black"/>
<path d="M38.2985 56.2147H37.817C37.6932 56.2147 37.6724 56.1528 37.6724 55.9738V52.714C37.6724 52.5757 37.6998 52.5068 37.8374 52.5068H38.2711C38.4361 52.5068 38.4361 52.5621 38.4361 52.714V55.9738C38.4361 56.1528 38.4295 56.2147 38.2985 56.2147ZM38.2985 51.8454H37.8445C37.7071 51.8454 37.6724 51.8108 37.6724 51.6182V51.3703C37.6724 51.2118 37.6998 51.1699 37.8581 51.1699H38.2915C38.4432 51.1699 38.4361 51.2529 38.4361 51.4042V51.6387C38.4361 51.8042 38.4086 51.8454 38.2985 51.8454Z" fill="black"/>
<path d="M42.1234 53.9961C42.1234 53.3893 41.9034 52.9415 41.2772 52.9415C40.775 52.9415 40.4036 53.2795 40.4036 54.0307V54.7055C40.4036 55.4567 40.7959 55.7601 41.2843 55.7601C41.8069 55.7601 42.1234 55.3052 42.1234 54.6232V53.9961ZM41.2706 56.2907C40.2042 56.2907 39.5853 55.8502 39.5853 54.3818C39.5853 52.9415 40.266 52.4109 41.3051 52.4109C42.323 52.4109 42.9078 52.9624 42.9078 54.3753C42.9078 55.6152 42.2955 56.2907 41.2706 56.2907Z" fill="black"/>
<path d="M46.8569 56.215H46.4095C46.2928 56.215 46.2308 56.1393 46.2308 55.9669V53.7755C46.2308 53.41 46.0589 53.0934 45.5839 53.0934C45.0543 53.0934 44.8204 53.5406 44.8204 53.8786V55.9528C44.8204 56.1327 44.8138 56.215 44.6831 56.215H44.2496C44.098 56.215 44.0569 56.1393 44.0569 55.9598V52.7209C44.0569 52.5831 44.0844 52.5069 44.2217 52.5069H44.6622C44.7793 52.5069 44.8275 52.6242 44.8275 52.9415C45.0615 52.6177 45.3982 52.4246 45.9213 52.4246C46.5059 52.4246 47.0082 52.7275 47.0082 53.6097V55.8979C47.0082 56.1256 46.9807 56.215 46.8569 56.215Z" fill="black"/>
<path d="M75.6146 15.9162C75.6146 16.297 75.3163 16.5961 74.9281 16.5961C74.5439 16.5961 74.2372 16.2972 74.2372 15.9162C74.2372 15.5437 74.5439 15.2446 74.9281 15.2446C75.3161 15.2446 75.6146 15.5437 75.6146 15.9162ZM74.4086 15.9162C74.4086 16.2151 74.6295 16.4528 74.9319 16.4528C75.2264 16.4528 75.443 16.2153 75.443 15.9203C75.443 15.6215 75.2264 15.3797 74.9278 15.3797C74.6293 15.3797 74.4086 15.6215 74.4086 15.9162ZM74.8213 16.2683H74.6661V15.5967C74.7274 15.5844 74.8132 15.5762 74.9235 15.5762C75.0504 15.5762 75.1076 15.5967 75.1565 15.6254C75.1932 15.654 75.2218 15.7072 75.2218 15.7727C75.2218 15.8464 75.1646 15.9037 75.0829 15.9285V15.9367C75.1485 15.9613 75.1851 16.0104 75.2057 16.1005C75.2262 16.2028 75.2384 16.2438 75.2548 16.2683H75.0872C75.0668 16.2438 75.0543 16.1823 75.0341 16.1046C75.0218 16.0309 74.9812 15.9981 74.8951 15.9981H74.8216V16.2683H74.8213ZM74.8257 15.8876H74.8992C74.985 15.8876 75.0545 15.8589 75.0545 15.7893C75.0545 15.7279 75.0098 15.687 74.9115 15.687C74.8706 15.687 74.842 15.6911 74.8257 15.6952V15.8876Z" fill="black"/>
</svg>
