<svg width="40" height="18" viewBox="0 0 40 18" fill="none" xmlns="http://www.w3.org/2000/svg">
<path d="M0 4.01807L38.634 2.26565e-05L40 13.1346L1.36603 17.1526L0 4.01807Z" fill="#FFBE0B"/>
<path d="M6.07905 8.67508L6.83286 8.59668C6.90139 8.58955 6.95336 8.55644 6.9902 8.51104L7.21125 8.23869C7.24809 8.19329 7.2698 8.13562 7.26267 8.06709L7.07166 6.23054C7.06454 6.16201 7.03142 6.11004 6.98603 6.0732L6.24461 5.47147C6.19922 5.43463 6.14154 5.41292 6.07301 5.42004L3.19483 5.71938C3.1263 5.72651 3.07433 5.75962 3.03749 5.80502L2.28982 6.74172C2.25298 6.78711 2.23127 6.84478 2.2384 6.91331L3.03949 14.6159C3.04662 14.6844 3.07973 14.7364 3.12512 14.7732L3.79089 15.3135C3.83628 15.3504 3.89396 15.3721 3.96248 15.365L6.89549 15.0599C6.96402 15.0528 7.01599 15.0197 7.05283 14.9743L7.81278 14.0225C7.84962 13.9771 7.87133 13.9194 7.8642 13.8509L7.696 12.2336C7.68887 12.1651 7.65576 12.1131 7.61037 12.0763L7.33801 11.8552C7.29261 11.8184 7.23494 11.7967 7.16641 11.8038L6.4126 11.8822C6.34408 11.8893 6.2921 11.9224 6.25526 11.9678L6.03422 12.2402C5.99738 12.2856 5.97567 12.3433 5.9828 12.4118L6.0669 13.2204L5.82129 13.523L5.08119 13.6L4.79227 13.353L4.19074 7.5692L4.42264 7.26801L5.16275 7.19103L5.46537 7.43664L5.54947 8.24527C5.55659 8.3138 5.58971 8.36577 5.6351 8.40261L5.90746 8.62365C5.95285 8.66049 6.01053 8.6822 6.07905 8.67508Z" fill="#D02525"/>
<path d="M9.23505 5.09118L8.23454 5.19524C8.16601 5.20237 8.11404 5.23548 8.0772 5.28087L7.893 5.50784C7.85616 5.55323 7.83445 5.6109 7.84158 5.67943L8.751 14.4236C8.75812 14.4922 8.79124 14.5441 8.83663 14.581L9.0636 14.7652C9.10899 14.802 9.16666 14.8237 9.23519 14.8166L10.2357 14.7125C10.3042 14.7054 10.3562 14.6723 10.393 14.6269L10.5635 14.4014C10.6004 14.356 10.6221 14.2983 10.615 14.2298L9.70554 5.48557C9.69841 5.41705 9.6653 5.36508 9.61991 5.32823L9.40665 5.14261C9.36125 5.10577 9.30358 5.08406 9.23505 5.09118Z" fill="#D02525"/>
<path d="M15.4306 4.46069L10.9077 4.93108C10.8392 4.9382 10.7872 4.97132 10.7504 5.01671L10.5784 5.22854C10.5416 5.27394 10.5199 5.33161 10.527 5.40014L10.6311 6.40065C10.6382 6.46918 10.6713 6.52115 10.7167 6.55799L10.93 6.74362C10.9754 6.78046 11.033 6.80217 11.1016 6.79504L12.2665 6.67388L12.4481 6.82124L13.1922 13.9756C13.1993 14.0441 13.2324 14.0961 13.2778 14.1329L13.5034 14.3034C13.5488 14.3403 13.6064 14.362 13.675 14.3548L14.6618 14.2522C14.7303 14.2451 14.7823 14.212 14.8191 14.1666L15.0047 13.9533C15.0416 13.9079 15.0633 13.8503 15.0562 13.7817L14.3121 6.62738L14.4594 6.44581L15.6244 6.32465C15.693 6.31752 15.7449 6.28441 15.7818 6.23902L15.9523 6.01348C15.9891 5.96808 16.0108 5.91041 16.0037 5.84188L15.8996 4.84137C15.8925 4.77284 15.8594 4.72087 15.814 4.68403L15.6022 4.51211C15.5568 4.47527 15.4991 4.45356 15.4306 4.46069Z" fill="#D02525"/>
<path d="M21.5413 4.36546L20.9706 3.93993C20.9252 3.90309 20.8689 3.89508 20.8141 3.90078L18.4704 4.14453C18.4156 4.15023 18.3622 4.16964 18.3254 4.21503L17.8544 4.7489C17.8176 4.79429 17.7945 4.83826 17.7865 4.8945L17.6309 13.3893C17.6243 13.4592 17.6589 13.5249 17.7057 13.5754L17.9809 13.8239C18.0277 13.8744 18.0991 13.8947 18.1676 13.8876L19.0996 13.7907C19.1544 13.785 19.2201 13.7504 19.2569 13.705L19.512 13.3599C19.5351 13.3159 19.5445 13.2734 19.554 13.2308L19.6052 10.9257L19.9533 10.5432L20.6797 10.4676L21.0991 10.7704L21.6235 13.0156C21.6415 13.0553 21.6595 13.095 21.6912 13.1332L22.0103 13.4048C22.0572 13.4554 22.1285 13.4756 22.1834 13.4699L23.1153 13.373C23.1839 13.3659 23.2496 13.3313 23.285 13.2722L23.5032 12.9725C23.5386 12.9134 23.5589 12.842 23.5395 12.7886L21.6377 4.49396C21.6183 4.44056 21.5867 4.4023 21.5413 4.36546ZM19.8111 8.90937L19.5661 8.68548L19.4795 5.85444L19.6543 5.67002L19.9695 5.63723L20.1648 5.78317L20.6763 8.57002L20.4552 8.84238L19.8111 8.90937Z" fill="#D02525"/>
<path d="M27.1983 3.2368L24.2516 3.54327C24.1831 3.5504 24.1311 3.58351 24.0943 3.6289L23.5662 4.27954C23.5294 4.32493 23.5077 4.3826 23.5148 4.45113L24.3587 12.5649C24.3658 12.6334 24.3989 12.6854 24.4443 12.7222L24.9285 13.1152C24.9739 13.152 25.0316 13.1737 25.1001 13.1666L28.4717 12.8159C28.5402 12.8088 28.5922 12.7757 28.629 12.7303L29.389 11.7785C29.4258 11.7331 29.4475 11.6754 29.4404 11.6069L28.722 4.69924C28.7163 4.64442 28.6969 4.59102 28.6515 4.55418L27.3851 3.30051C27.3383 3.24996 27.2669 3.22968 27.1983 3.2368ZM27.0943 5.69976L27.6431 10.9764L27.3975 11.279L26.3833 11.3845L26.0944 11.1375L25.4928 5.35372L25.7247 5.05253L26.3826 4.98411L27.0943 5.69976Z" fill="#D02525"/>
<path d="M31.4441 4.73478L31.676 4.43358L33.3892 4.2554C33.4577 4.24828 33.5097 4.21516 33.5465 4.16977L33.7184 3.95794C33.7553 3.91254 33.777 3.85487 33.7699 3.78634L33.6872 2.99142C33.6801 2.92289 33.6469 2.87092 33.6015 2.83408L33.3897 2.66215C33.3443 2.62531 33.2866 2.6036 33.2181 2.61073L30.4496 2.89867C30.381 2.90579 30.3291 2.9389 30.2922 2.9843L29.5431 3.90729C29.5063 3.95269 29.4846 4.01036 29.4917 4.07889L30.2928 11.7814C30.2999 11.85 30.3331 11.9019 30.3784 11.9388L31.0442 12.4791C31.0896 12.516 31.1473 12.5377 31.2158 12.5305L34.2173 12.2184C34.2859 12.2112 34.3378 12.1781 34.3747 12.1327L34.5466 11.9209C34.5834 11.8755 34.6052 11.8178 34.598 11.7493L34.5182 10.9818C34.5111 10.9133 34.478 10.8613 34.4326 10.8245L34.2193 10.6388C34.1739 10.602 34.1162 10.5803 34.0477 10.5874L32.3345 10.7656L32.047 10.5323L31.8802 8.9287L32.089 8.67147L32.7606 8.60163C32.8291 8.5945 32.8811 8.56139 32.9179 8.51599L33.0898 8.30416C33.1267 8.25876 33.1484 8.20109 33.1413 8.13256L33.06 7.35134C33.0529 7.28282 33.0198 7.23084 32.9744 7.194L32.7626 7.02208C32.7172 6.98524 32.6595 6.96353 32.591 6.97066L31.9194 7.0405L31.6622 6.83174L31.4441 4.73478Z" fill="#D02525"/>
<path d="M37.9214 10.1707L37.428 10.222L37.1268 9.99009L36.3699 2.7124C36.3628 2.64387 36.3297 2.5919 36.2843 2.55506L36.0711 2.36943C36.0257 2.33259 35.968 2.31088 35.8995 2.31801L34.8989 2.42206C34.8304 2.42919 34.7784 2.4623 34.7416 2.5077L34.5574 2.73466C34.5206 2.78006 34.4989 2.83773 34.506 2.90626L35.3741 11.253C35.3812 11.3215 35.4143 11.3735 35.4597 11.4103L36.1255 11.9507C36.1709 11.9875 36.2285 12.0092 36.2971 12.0021L38.0925 11.8153C38.161 11.8082 38.213 11.7751 38.2498 11.7297L38.4203 11.5042C38.4572 11.4588 38.4789 11.4011 38.4718 11.3326L38.3919 10.5651C38.3848 10.4965 38.3517 10.4446 38.3063 10.4077L38.093 10.2221C38.0476 10.1853 37.99 10.1635 37.9214 10.1707Z" fill="#D02525"/>
<path d="M5.57594 8.03787L6.32975 7.95947C6.39828 7.95234 6.45025 7.91923 6.48709 7.87384L6.70814 7.60148C6.74498 7.55609 6.76669 7.49841 6.75956 7.42988L6.56855 5.59333C6.56142 5.5248 6.52831 5.47283 6.48292 5.43599L5.7415 4.83426C5.6961 4.79742 5.63843 4.77571 5.5699 4.78284L2.69172 5.08218C2.62319 5.0893 2.57122 5.12242 2.53438 5.16781L1.78671 6.10451C1.74987 6.1499 1.72816 6.20758 1.73529 6.2761L2.53638 13.9787C2.5435 14.0472 2.57662 14.0992 2.62201 14.136L3.28778 14.6763C3.33317 14.7132 3.39084 14.7349 3.45937 14.7278L6.39238 14.4227C6.46091 14.4156 6.51288 14.3825 6.54972 14.3371L7.30966 13.3853C7.34651 13.3399 7.36821 13.2822 7.36109 13.2137L7.19289 11.5964C7.18576 11.5279 7.15265 11.4759 7.10725 11.4391L6.8349 11.218C6.7895 11.1812 6.73183 11.1595 6.6633 11.1666L5.90949 11.245C5.84096 11.2521 5.78899 11.2852 5.75215 11.3306L5.53111 11.603C5.49427 11.6484 5.47256 11.706 5.47968 11.7746L5.56378 12.5832L5.31818 12.8858L4.57808 12.9628L4.28916 12.7158L3.68763 6.93199L3.91953 6.6308L4.65963 6.55383L4.96225 6.79943L5.04635 7.60806C5.05348 7.67659 5.0866 7.72856 5.13199 7.7654L5.40435 7.98645C5.44974 8.02329 5.50741 8.045 5.57594 8.03787Z" fill="#02090F"/>
<path d="M8.73194 4.45398L7.73143 4.55803C7.6629 4.56516 7.61093 4.59827 7.57409 4.64367L7.38989 4.87063C7.35305 4.91602 7.33134 4.9737 7.33846 5.04223L8.24788 13.7864C8.25501 13.8549 8.28812 13.9069 8.33352 13.9438L8.56048 14.128C8.60588 14.1648 8.66355 14.1865 8.73208 14.1794L9.73259 14.0753C9.80112 14.0682 9.85309 14.0351 9.88993 13.9897L10.0604 13.7642C10.0973 13.7188 10.119 13.6611 10.1118 13.5926L9.20243 4.84837C9.1953 4.77984 9.16219 4.72787 9.1168 4.69103L8.90353 4.5054C8.85814 4.46856 8.80047 4.44685 8.73194 4.45398Z" fill="#02090F"/>
<path d="M14.9275 3.82348L10.4046 4.29387C10.3361 4.301 10.2841 4.33411 10.2473 4.3795L10.0753 4.59134C10.0385 4.63673 10.0168 4.6944 10.0239 4.76293L10.128 5.76344C10.1351 5.83197 10.1682 5.88394 10.2136 5.92078L10.4269 6.10641C10.4723 6.14325 10.5299 6.16496 10.5985 6.15783L11.7634 6.03667L11.945 6.18403L12.6891 13.3384C12.6962 13.4069 12.7293 13.4589 12.7747 13.4957L13.0003 13.6662C13.0456 13.7031 13.1033 13.7248 13.1718 13.7176L14.1587 13.615C14.2272 13.6079 14.2792 13.5748 14.316 13.5294L14.5016 13.3161C14.5385 13.2707 14.5602 13.213 14.553 13.1445L13.809 5.99018L13.9563 5.80861L15.1213 5.68744C15.1898 5.68032 15.2418 5.6472 15.2787 5.60181L15.4491 5.37627C15.486 5.33088 15.5077 5.2732 15.5006 5.20468L15.3965 4.20416C15.3894 4.13564 15.3563 4.08367 15.3109 4.04682L15.099 3.8749C15.0537 3.83806 14.996 3.81635 14.9275 3.82348Z" fill="#02090F"/>
<path d="M21.0381 3.72825L20.4674 3.30272C20.4221 3.26588 20.3658 3.25787 20.311 3.26358L17.9673 3.50732C17.9125 3.51303 17.8591 3.53243 17.8223 3.57783L17.3513 4.11169C17.3145 4.15708 17.2914 4.20105 17.2834 4.2573L17.1278 12.752C17.1212 12.822 17.1558 12.8877 17.2026 12.9382L17.4778 13.1867C17.5246 13.2372 17.596 13.2575 17.6645 13.2504L18.5965 13.1535C18.6513 13.1478 18.717 13.1132 18.7538 13.0678L19.0089 12.7227C19.032 12.6787 19.0414 12.6361 19.0509 12.5936L19.1021 10.2885L19.4502 9.90599L20.1766 9.83044L20.596 10.1332L21.1204 12.3784C21.1384 12.4181 21.1564 12.4577 21.1881 12.496L21.5072 12.7676C21.5541 12.8182 21.6254 12.8384 21.6803 12.8327L22.6122 12.7358C22.6808 12.7287 22.7464 12.6941 22.7819 12.635L23 12.3353C23.0355 12.2762 23.0558 12.2048 23.0363 12.1514L21.1346 3.85675C21.1152 3.80336 21.0835 3.76509 21.0381 3.72825ZM19.308 8.27217L19.063 8.04827L18.9764 5.21724L19.1512 5.03281L19.4664 5.00003L19.6617 5.14596L20.1732 7.93281L19.9521 8.20517L19.308 8.27217Z" fill="#02090F"/>
<path d="M26.6952 2.5996L23.7485 2.90606C23.68 2.91319 23.628 2.9463 23.5912 2.9917L23.0631 3.64233C23.0263 3.68772 23.0046 3.7454 23.0117 3.81392L23.8556 11.9277C23.8627 11.9962 23.8958 12.0482 23.9412 12.085L24.4254 12.478C24.4708 12.5148 24.5285 12.5365 24.597 12.5294L27.9686 12.1787C28.0371 12.1716 28.0891 12.1385 28.1259 12.0931L28.8859 11.1413C28.9227 11.0959 28.9444 11.0382 28.9373 10.9697L28.2189 4.06204C28.2132 4.00721 28.1938 3.95382 28.1484 3.91698L26.882 2.6633C26.8351 2.61275 26.7638 2.59247 26.6952 2.5996ZM26.5912 5.06255L27.14 10.3392L26.8944 10.6418L25.8802 10.7473L25.5912 10.5003L24.9897 4.71652L25.2216 4.41532L25.8795 4.3469L26.5912 5.06255Z" fill="#02090F"/>
<path d="M30.941 4.09757L31.1728 3.79638L32.8861 3.6182C32.9546 3.61107 33.0066 3.57796 33.0434 3.53256L33.2153 3.32073C33.2522 3.27534 33.2739 3.21766 33.2667 3.14913L33.1841 2.35421C33.1769 2.28568 33.1438 2.23371 33.0984 2.19687L32.8866 2.02495C32.8412 1.9881 32.7835 1.9664 32.715 1.97352L29.9465 2.26146C29.8779 2.26859 29.826 2.3017 29.7891 2.34709L29.04 3.27008C29.0032 3.31548 28.9815 3.37315 28.9886 3.44168L29.7897 11.1442C29.7968 11.2128 29.8299 11.2647 29.8753 11.3016L30.5411 11.8419C30.5865 11.8788 30.6442 11.9005 30.7127 11.8933L33.7142 11.5812C33.7828 11.574 33.8347 11.5409 33.8716 11.4955L34.0435 11.2837C34.0803 11.2383 34.102 11.1806 34.0949 11.1121L34.0151 10.3446C34.008 10.2761 33.9748 10.2241 33.9295 10.1872L33.7162 10.0016C33.6708 9.96478 33.6131 9.94307 33.5446 9.9502L31.8314 10.1284L31.5439 9.89505L31.3771 8.29149L31.5859 8.03427L32.2575 7.96442C32.326 7.95729 32.378 7.92418 32.4148 7.87879L32.5867 7.66695C32.6236 7.62156 32.6453 7.56389 32.6382 7.49536L32.5569 6.71414C32.5498 6.64561 32.5167 6.59364 32.4713 6.5568L32.2594 6.38487C32.214 6.34803 32.1564 6.32632 32.0878 6.33345L31.4163 6.4033L31.159 6.19453L30.941 4.09757Z" fill="#02090F"/>
<path d="M37.4183 9.53346L36.9249 9.58478L36.6237 9.35288L35.8668 2.07519C35.8597 2.00666 35.8266 1.95469 35.7812 1.91785L35.5679 1.73222C35.5225 1.69538 35.4649 1.67367 35.3963 1.6808L34.3958 1.78486C34.3273 1.79198 34.2753 1.8251 34.2385 1.87049L34.0543 2.09746C34.0175 2.14285 33.9957 2.20052 34.0029 2.26905L34.871 10.6158C34.8781 10.6843 34.9112 10.7363 34.9566 10.7731L35.6224 11.3134C35.6677 11.3503 35.7254 11.372 35.7939 11.3649L37.5894 11.1781C37.6579 11.171 37.7099 11.1379 37.7467 11.0925L37.9172 10.867C37.9541 10.8216 37.9758 10.7639 37.9686 10.6954L37.8888 9.92786C37.8817 9.85933 37.8486 9.80736 37.8032 9.77052L37.5899 9.58489C37.5445 9.54805 37.4869 9.52634 37.4183 9.53346Z" fill="#02090F"/>
</svg>
