<svg width="1427" height="7" viewBox="0 0 1427 7" fill="none" xmlns="http://www.w3.org/2000/svg">
<path d="M1 0L1 7" stroke="#828282" stroke-width="0.5"/>
<path d="M26 0L26 7" stroke="#828282" stroke-width="0.5"/>
<path d="M51 0L51 7" stroke="#828282" stroke-width="0.5"/>
<path d="M76 0L76 7" stroke="#828282" stroke-width="0.5"/>
<path d="M101 0L101 7" stroke="#828282" stroke-width="0.5"/>
<path d="M126 0L126 7" stroke="#828282" stroke-width="0.5"/>
<path d="M151 0L151 7" stroke="#828282" stroke-width="0.5"/>
<path d="M176 0L176 7" stroke="#828282" stroke-width="0.5"/>
<path d="M201 0L201 7" stroke="#828282" stroke-width="0.5"/>
<path d="M226 0L226 7" stroke="#828282" stroke-width="0.5"/>
<path d="M251 0L251 7" stroke="#828282" stroke-width="0.5"/>
<path d="M276 0L276 7" stroke="#828282" stroke-width="0.5"/>
<path d="M301 0L301 7" stroke="#828282" stroke-width="0.5"/>
<path d="M326 0L326 7" stroke="#828282" stroke-width="0.5"/>
<path d="M351 0L351 7" stroke="#828282" stroke-width="0.5"/>
<path d="M376 0L376 7" stroke="#828282" stroke-width="0.5"/>
<path d="M401 0L401 7" stroke="#828282" stroke-width="0.5"/>
<path d="M426 0L426 7" stroke="#828282" stroke-width="0.5"/>
<path d="M451 0L451 7" stroke="#828282" stroke-width="0.5"/>
<path d="M476 0L476 7" stroke="#828282" stroke-width="0.5"/>
<path d="M501 0L501 7" stroke="#828282" stroke-width="0.5"/>
<path d="M526 0L526 7" stroke="#828282" stroke-width="0.5"/>
<path d="M551 0L551 7" stroke="#828282" stroke-width="0.5"/>
<path d="M576 0L576 7" stroke="#828282" stroke-width="0.5"/>
<path d="M601 0L601 7" stroke="#828282" stroke-width="0.5"/>
<path d="M626 0L626 7" stroke="#828282" stroke-width="0.5"/>
<path d="M651 0L651 7" stroke="#828282" stroke-width="0.5"/>
<path d="M676 0L676 7" stroke="#828282" stroke-width="0.5"/>
<path d="M701 0L701 7" stroke="#828282" stroke-width="0.5"/>
<path d="M726 0L726 7" stroke="#828282" stroke-width="0.5"/>
<path d="M751 0L751 7" stroke="#828282" stroke-width="0.5"/>
<path d="M776 0L776 7" stroke="#828282" stroke-width="0.5"/>
<path d="M801 0L801 7" stroke="#828282" stroke-width="0.5"/>
<path d="M826 0L826 7" stroke="#828282" stroke-width="0.5"/>
<path d="M851 0L851 7" stroke="#828282" stroke-width="0.5"/>
<path d="M876 0L876 7" stroke="#828282" stroke-width="0.5"/>
<path d="M901 0L901 7" stroke="#828282" stroke-width="0.5"/>
<path d="M926 0L926 7" stroke="#828282" stroke-width="0.5"/>
<path d="M951 0L951 7" stroke="#828282" stroke-width="0.5"/>
<path d="M976 0L976 7" stroke="#828282" stroke-width="0.5"/>
<path d="M1001 0L1001 7" stroke="#828282" stroke-width="0.5"/>
<path d="M1026 0L1026 7" stroke="#828282" stroke-width="0.5"/>
<path d="M1051 0L1051 7" stroke="#828282" stroke-width="0.5"/>
<path d="M1076 0L1076 7" stroke="#828282" stroke-width="0.5"/>
<path d="M1101 0L1101 7" stroke="#828282" stroke-width="0.5"/>
<path d="M1126 0L1126 7" stroke="#828282" stroke-width="0.5"/>
<path d="M1151 0L1151 7" stroke="#828282" stroke-width="0.5"/>
<path d="M1176 0L1176 7" stroke="#828282" stroke-width="0.5"/>
<path d="M1201 0L1201 7" stroke="#828282" stroke-width="0.5"/>
<path d="M1226 0L1226 7" stroke="#828282" stroke-width="0.5"/>
<path d="M1251 0L1251 7" stroke="#828282" stroke-width="0.5"/>
<path d="M1276 0L1276 7" stroke="#828282" stroke-width="0.5"/>
<path d="M1301 0L1301 7" stroke="#828282" stroke-width="0.5"/>
<path d="M1326 0L1326 7" stroke="#828282" stroke-width="0.5"/>
<path d="M1351 0L1351 7" stroke="#828282" stroke-width="0.5"/>
<path d="M1376 0L1376 7" stroke="#828282" stroke-width="0.5"/>
<path d="M1401 0L1401 7" stroke="#828282" stroke-width="0.5"/>
<path d="M1426 0L1426 7" stroke="#828282" stroke-width="0.5"/>
</svg>
